<?xml version="1.0" encoding="UTF-8"?>
<svg id="Ebene_1" data-name="Ebene 1" xmlns="http://www.w3.org/2000/svg" version="1.1" viewBox="0 0 708 416">
  <defs>
    <style>
      .cls-1 {
        fill: #eec947;
      }

      .cls-1, .cls-2 {
        fill-rule: evenodd;
        stroke-width: 0px;
      }

      .cls-2 {
        fill: #303f52;
      }
    </style>
  </defs>
  <path class="cls-1" d="M270.1,10.1c-124.5,15.6-117.3-23.5-57.6,83.9,26.8,48.8,31.8,54.5,43.1,58,.1.9-.2,5.9,1.5,3,.8-1.2.9-1,.4.8-3.6,3.9,11.8,4.8,8.5.4-1.5-1.6-1.5-2.2,0-1.7,2,.6,2.1.5,1.1-1.4-2.9-5.2,5.4,4.3,7.8,1.7,1.5.6,1.5.4.2-1.2-2.1-3.2-2.4,2.9-4.3-.9-.1-7.1,12.9,8.3,8.8.8-4.2-7.6,6,5,6.2,4.8,2.6,1.1-6.7-10.1.8-3,3.1,3.4,6.3,5.3,3.8,2.3-2.3-2.5,1.9-6.5,1.2-2.5-.4.7-.2.8.5.3,1.4-1.4,3.9,3.7,4.7,1.7.3-1.6,3.6-.6,2.8-2.4-.7-1.6,18.3,17.2,8.7,6.7-11.7-13.6-1.4-3.4-1.6-6.3-3-3.9,1.2-1.8,2.9.6,4.5,4.1,1.4-.2.5-2,.4-.8,6.2,6.6,4.6,1.7-1-2.4-.2-1.4,1-1,3,1.3-1.4-4.6,2.7-.6,2.7,2.5,4.7,3,2.7.7-2.3-2.8-.3-1.5,4.6,2.9,14.3,10.4,2-5.3,7.5.5,5.1,4-1.2,5.5,4.4,8.1,1.7,0,.4-.5-.2-1.2-3.6-5.2,5.7,1.1-3.6-9.7,2.4,1.9,13.5,12.1,5.3,3-10.1-12.3,9.5,8.1,10,7.5,0-.5-.5-1.6-1.2-2.2-3.8-5.3,9.5,7.4,2.3-.9-3.4-4.4-4.8-5.4-3.7-2.8,2.2,4.2-5.1-1.8-2.6-2.3-4.2-12.1,24.8,23,13.6,8.6-17.8-20.6-.4-1.2,2.1-2.6-.5-.4-3-3-5.5-5.7-11.5-13.4,11.7,11.4,13,10.7,0-2.1,4.6-.2,1.6-2.7-4.5-4.2.4,4.6-6.4-3.6-8.9-11-1.9-2.9,1.8-.9.5-1.1-4.8-6.7,0-2.6,2.1,1.9,3.1,2.4,2.6,1.2-1.4-4.4,4.7,1.7,5.3,1-1,.6,3.1,6.2,4.5,6.2,1-1.6-5.8-7.5,2.5-.8,8.9,6.6-4.9-5-2.2-7.1.7-2.1,3.5-1.1,3.5,1.2s-.7.4-1.5-.2c-4.8-2.8,4,6.5,4.8,6,1.7-.2-3-3.3-2.2-4.4,3.4-.9,10.6,16.1,9.2,11.2-6.3-6.9,3.7-.2-1.2-5.2-10-12.4,21.4,18.7,6.4,2.2-2.8-2.5-8.8-9.8-3.7-5.4,8.1,8.8,12.8,10.8,5.6,3.2-8.4-9.2,4.5,2.4.6-3.2-3.5-4.5,2.8-1,2.8,2.8.1,5.3,1.7,9.3,3.9,10.1,1.4.5,1.4.3,0-1.8-3.6-4.8,4-2.9,3.6-.6-4.8,5.4,6.8,11.1,1.7,5.8-4.1-4.4,4.3,2,0-4.1.4-1.1,4.9,3.4,3.5.4,3.1-3.2-4.6-7.5-6.7-11.3-.9-3.1,19.8,20.3,14.6,11.6-.4-2.8,8.2,8.3,5.7,2.6-3.1-6,12.5,10.8,9.4,6.3-1.9-2.8-14.2-13.3-10.4-13.4,3.2,2.7,1.6-.8-2-4.3-5.1-5.1-3.2-5.5,1.4-.3,10.7,11.4,16.5,15.5,6.8,4.8-10.2-12,18.1,17.4,10.4,7.2-2.5-3.8-2.8-2.2-4.8-5.2-3.7-6.7,7.6,7,8.5,6.5.3-1.9-8.9-11-4.4-7.6,3.6,2.3,2.4-2.4,6.7,2.6,12.8,11.7-8.6-11,1.8-2.3,6.9,5.3-9.7-11.6,1-2.4,5,8.9,7.9,7.1,20.1,20.5.7.1-13.4-16.5-6.3-10.2,5.1,3.8-1.9-8-2.1-9.1,1.1,0,15.4,15.1,15.4,16.3s-.5.6-1,.2c-1.6-1-1.2,1.1.5,2.5,1.3,1.1,1.4,1,.9-.4-1.8-5.8,10.5,8.3,1.2-2.9-17.2-20,15.7,13.2,3.6-.5-3.5-6.8,14.6,11.6,9.4,9.5-1.9-.7-2.3.8-.6,1.9,5.2-3.1,5.5,3.1,5.6.1-.6-2,.4-2.3,2.3-.5.7.7.4-.2-.9-2-6.3-8.5.3,2.8-4-.8-3.9-3.1,1.3-1.3.3-4.3-.3-.9.8,0,2.5,1.8,5.3,6.6.9-2.7,5.5,1.8,11,9.5-11.5-13.2-4.1-9.2,2,1.1-2.2-3-.8-3.4.9-1,3.3,3.7,4.3,2.4.4-.4,0-1.2-.7-1.7-2.3-2.7,4.6,1.4,2.1,2.2-1.7.4,1.8,4.6,2.7,3.5-1.7-3.6-1.3-3,2.8,0,2,1.8,2.4,2,1.1.5-9.1-12.8,22.2,19.5,8.9,4.7-10.4-13.3,7.2,4.6,8.1,4.9.2-.2-3-3.9-7.1-8.2s-7.2-8.1-7-8.4c.9-.7,22.7,22.3,11,8.5-9.5-12.3,6.7,5.1,3-.2-1.3-5-10.3-5.9-8.5-7.5,3.3-1-10-12.2.3-3.8,15.6,11.8-1.1-5.8,5.4-3.9,6,10.9,21.4,19.7,33.3,32,.7-.7-14.4-14.6-13.1-15.6,1.6-.2,12.8,12.2,5.1,2.9-8.6-10.1,9.7,4.3,5.7,5.2-6.6-4,8.6,11.4,4.1,5.1-3.4-4.7-3.4-5.8,0-2.7,9.5,8.6-26.3-28.8-10.8-15.4,6.9,5.7,3.7,0,14,11,9.6,10.7,6.2,5.4,11.2,8,5.7,3.9-3.4-5.1-3.2-6.1.3-1.3,7.1,6.4,7.6,5.1,1-.8-6-5.8-5.1-6.6,1.9,0,6.8,6.8,6.1,3.5-.8-2.3,1.4-.8,5.1,3.4,8.3,10.6-10-8.6-4.7,3.1,1.3,6.2-7.9-3.7-6.3,1.1.5,2,.4,2.2-1,1-2.8-2.3-1.8,3-5.8-2.1-3-3.5-5.9-3.4-2-.2,4.6,9.5-15.3-1.9-17.1-8-1.6,3,17.4,15.1,3.9,12.7-11.6,0-26.1,3.5-36,3-14.4,3.5-34.1,1.6-42.6,3.4-26.8,2.2-18.6,1.7-46.7,3.7-14.7,2.4-12.8-3.3-9.5,11.5,8.9,16.7,44.4,44.3,32,59.7-18.8,11.9-31.7,43.7-46,64-16.2,29.9-19.8,11.6-7.3-10.9,15.5-47,32.3-33.8-17.9-43.2,13.4,4.2,23.5,5.3,15.6,17-15.6,29.8-21.1,34.6-35.3,30.6-26.6-6-45.3,1.8-53.6-26.3-10.2,11.9-4.7,23.6,4,35.6.9.9.9.6,0-1.1-1.8-3.2,1.4-1.5,1-5.4,0-4.9,1.6-6.8,2.4-3,1,8.1,13.9,5.6,17.6,9.5,1.9,4.1,5.9,2.7,8.5,5,2.6,2.8,4.5,3.5,4.5,1.8-.3-2.5,3.6,1.9,2.3-1.7-2.5-4.3,6.2,4.9,4.2.7,46.4,7-45.6,9-42.4-2.9,3.6-2.8-5.1-4.3-3.6-.5,1.1,2.5-2.6.1-3.3.4-14.9-35.4-15.4-79.2-32.8-111.9-.5-6.2-9.7-5.3-13.7-11.2.2.9,8.3,11.6,1.6,4.6-.3-3.8-8.4-.2-8.1-2.4-.8-1.5-7.8-3.8-7-7.5-9.6-12.4-35-49.3-53.7-53.6-6.5-3.7,0-5.6,3.4-5.5-4.2-13.5-18.6-1.6-27.5-5.6-29.4-10-40.7-22.7-73.5-31.2-5.4-1.5.8,1.6,13.5,6.6,27,10.6,27.7,11.2,29.1,23.5.9,7.7-1.6,7.3-24.6-4.2-20-10-18.1-8.3-21.6-19.6-6.2-26.4-7.1,17.1-5.2,20.2,8.6,2.7,7.5,11.7-1.5,7.5-10.8-8.2-31.4,7.1-13.9,16,2.1-.3,2.8,2.3,1.1,2.5-2.3,0,3,3.7.2,3.8-2.1,1.2,1.8,8.3,3.8,4.2,3.1-1,6,12.9,7.4,15.8,5,5.7,5,11,7.2,19.8,1.3,9.6,3.7,18.2-5.7,19.9-4.6.5-13.3,8.7-5.7,11.4,11.3-1.6,14.8-8.7,28.7,6.8,3.8,7.5,29.2,19,15.1,17.6-11.8,7.8-33.6-11-44.5-12.3,99.2,52.6,84.2,72.6,81.7-25.5,4.1-26.4-15.9-14.6-14.9-23.3.4-8-4.3-11.8-.6-18.2.2-2.6-2.7-.3-2.7-2.4,0-1.8,2.4-4,3.4-3s.4,0,0-1c-1.6-2.5,8.6-4,8.1-7.3-1.2-2.5,3.7.8,3.4-1.5-.1-2,5.6,5.3,5.8,3.3,5.2-2,10.7-2.5,16.9-4.9,40.6-13.4,83,93.6,93.3,141.5,6.7,21.1-1.4,47.8,28.2,45.1,31.5,3.5,50.5,9,88.9,10.4,56.3-19.1,45.4-114.9,159-103.5,84.9-1.1,82.3-35.8,112.2,28,16.5,33.4,18,35.3,24.6,31.1,6-7.2-11.7-43.5-5.6-48,0-5.5-13.1-6-6.5,9.2,7.1,17.7,13.2,39.7,4.3,16.9-34.2-73.1-20.9-50.9-25.2-87.7-4.6-14.7-9.3-31-.9-47,2.5-7.6,4-17.1,9.8-23.4.9-23.1-44.2-33-51.7-39.6-5.3-5.1-46.7-17.8-33.9-26.7,7.7-6-20.2-17.7-29.1-12.2-1.8,1.1,13.1,12.1,23.5,17.5,5.8,3,4.4,4.5-4.1,4.3-9.5,0-18.8-9-18.2-12-1,.9-3.9-6.1-3.6-2.1.4,1.8-2.9-4.8.7-3.2,6.1,0-17.4-12.8-18.5-15.3-8-8-70.6-47.9-88.4-56.1-19.7-7,27.7,23.7,31.7,25.3,20.7,14.4,39.8,27.2,59.8,43.8,13.4,10.8,42.1,20.9.3,20.7-79.5,1.8-209.6,17.3-284.7,14-13.4-19.2-24.2-44.2-37.5-67.5-5.2-9.5-18.8-26.5-6.5-26.7-6.6-15.7,304.5.3,204.6-20-14.9.5,19,.5,6,2.1-4.3.6-23.2,2-32.3,0-6.2-1.1-6.1-2.1.2-2.4,9-.4,7.6-1.1-2-1.1-31.8,1-63-4.3-101.6-1.9M345.3,12.7c1.5.2,3.8.2,5,0,3.2-.5-9-.5-5,0M101.2,34.6c1.8.6,3.4,3.4,1.9,3.4-12.4,19.6,32.9-3.9-1.9-3.4M505,72.9c-1.4-.1,12.8,10.7,10.5,6.2-2.4-4.7-10.6-9.5-10.6-6.2M68.9,76.8c-4,2.2-27.3,17.3-17.1,16.8,2.9-3.1,35.2-29.8,17.1-16.8M48.1,76.8c-4.6,3.3,6.5-1.1,3.5,3.6-.4,1.8-.3,2.5.4,2.1,2.7-4.6,6-7.7-3.8-5.8M45.3,82.5c-1.5,2.7-4.5,14.4-4.1,15.8,2.2-1.1,8.6-19.2,4-15.8M140.9,102.4c1.3,1.6.6,2.1-2.2,1.7-1.9,4.1-.2,4.8-11.8,5.2-6.2.4-12.9,2.9-16.3,4.4,1.4.6,1.7,3.3.4,3.3-5.9-.4-2-4.5-1.9-6-4,9.2-19.5-.5-21.3,4.4-8.4,4.8,19.1,8.7,21.9,12.5,5.4,6.1,31.8,2.1,29.1,0-4.9.6-17.6-4.5-11.9-4.5,2.2.5,2.3.4.6-.9-3.6-1.4,1.8-10,3.1-6.9,3.6,4.4,11.4,4.4,19.2-1.3,4.8-5,7.3,4.1,9.8,6.7,3.1,1.7-3.1,9.6,1.3,9.8,1.8,0,2.3-9.1,1-14.8-2.1-11.4-14.7-18.6-21.2-13.7M108,122.9c-.2,2.9,14.2,9.2,10.5,5.7-2.1-.3-12.8-12.1-10.5-5.7M143,130c-2.3,2.6-6.4,2.6-7.7,3.6,4.7,3.3,20.3-11.3,7.7-3.5M366.8,127.7c1.8.2,4.7.2,6.5,0,4.4-.5-10.8-.5-6.4,0M147.3,135.4c.9,3.6,5,.6,2.1-1.1-2.7-1.9-3.3-1.6-2.1,1.1M163.5,135.8c.4,2.5,4.4,19.4,4.9,8-.4-2.1,0-2.2,1.4-.2,3,8.9,10.1,7.1,15,8.6,2.5,2.4,2.5-.6-.2-1.3-2.6-.4-4.4-5.6-2.8-5.5,2.5-.1,0-2.9,6.4-1.9,2.9.2,4.5.2,3.5-.1-1-1.4-17.9-8.3-21.8-8.4-2.2,0-1,.6-1,1.2.6,12.4-5.4-7.9-5.5-.4M17.1,138.4c-6.4,6.7,5.7,11.2,7.9,11.4-.7-4.4-9.3-9.6-4.3-13.7,3.5-2.4-2.8-.6-3.8,2.2M149.3,148.1c1.2,2,1.9,2.3,7.7,3.4,10.7,2.8-11.7-8-7.7-3.4M326.9,156.3c11.9,11.1-5.4-7.9,0,0M317,155.8c-1.2-.4,9.2,9.8,7.5,7.4-2.2-2.6-1.4-4.2,1.1-2.1,4,3.1-5.2-8.5-2.9-2.4.3,2.6-6.2-7-5.6-3M390.6,156.3c1.8.7,2.8,9.4,2.8,5.1-.5-2.4,4.4,1-.9-4.4-1.9-1.7-2.4-1.9-1.9-.7M380,156.4c7.1,10.3,8.3,4.7,0,0M137,157.9c6,3.4,19.8,8.2,26.3,8.9-3.4-1.7-23.9-10.7-26.1-8.9M315,158.1c-2,3.1-9.9-3.4-4.3,3.3,5.6,6.8-2.4-6.1,4.2,1,6.9,5.4.3-.7.9-2.4,7.5,5.9-.5-6.4-.9-1.9M436.5,160.8c.5,0,6,7,6.5,6.8.5-1.3-8.1-10.2-6.5-6.7M226.8,165.3c5.4,5.2,3.3,2.2,6,2.1,5.3,1.9,1.1-5.8,1.6-2.2.7,2.1-.9,2.4-1.6.4,0-1.3-10.2-3.7-5.9-.3M410,164.7c14.6,20,14.3,6.3,0-.1M440.1,168.7c1.9,2.3,3.6,4,3.9,3.7,1.2,0-9.3-10.3-3.9-3.7M455.6,173.7c12.7,11.2-9.9-12.3-.1,0M421,172.6c0,1.2,4.8,6.3,5.3,5.7.8-.6-4.6-8.5-5.3-5.7M467,173.2c-.5,1,5.6,5.7,3.1,1.9-1.4-2.6-3.1-3.6-3.1-1.9M475,173.9c-7.8.8,2.1,5.8,3.5,6.9.5-.9-3.9-4.2-3.5-5.2.5-1.5,10.7,9.7,6,6.9-1.1-.7-1.4.8-.4,1.8,6,2.2-3.4-10,3.5-4.7,2,1.7,2,1.6-.2-1.4-1.9-2.6-2.5-3-2.8-1.7.4,3.5-5.7-4.5-6.1-2.6M430.2,176.8c.4.8,12.6,12.4,6.3,5.2-2.4-3.2-11.2-12.4-6.4-5.2M461.9,176.9c3.9,5.5,5.4.6-.2-2.1-1.8-1-1.8-.8.2,2.1M498.1,175.7c-1.7,1.6-.5,3.4.9,1.3,1.6-2.8.3,1.9,1.5.8.6-1.1-.7-4.7-2.4-2.1M520.5,178c9.4,10.5,4.8,1.7-1.5-2.5-1.3-1.1-.7,0,1.5,2.5M445,175.6c3.5,2,3.4,10.8,7.3,11.3,1.7,0,0-1.1-1.2-2.4-1-.7-3.1-12-6.1-9M488.6,176.6c-.6,2.3-3.8-.8-1.3,2.2,5.5,6.2-1.3-4.6,4.9.9,4.1,4.5-4.3-9.1-3.7-3.2M529.5,177.1c.1,3.9,8.5,12.9,11.1,13.6,1.4,0-7.6-9-5.4-8.4,1,.4,1.8.2,1.8-.4-1.3-1.3-7.1-.9-7-4.1,0-1.6.7-.4,1.5.3,5.4,3-.8-3.6-2.1-.9M509,177.7c0,1.5,4,5.6,4.7,4.9,1.2-.5-4.5-5.9-4.7-4.9M415.3,180.2c1.4,2.1-3.2,1.8-1.7,3,6,2.6,1.6-7,1.7-3.1M467,179.6c0,1,8.1,8.6,8.6,8.1.5-.3-8-11.2-8.7-8.1M41.8,182.2c-.8,13.7,10.6,35.2,15.2,47.7,7.4-7.4-12.4-48.2-15.4-47.7M451.9,182.2c-1.8,3.6,5.9,2.5,8.1,5.9,6.7,5.8-2.7-4.1-2.9-5.4-1.1-2.5,12.3,11.2,9.3,6.9-4.8-7-10.6-9.9-14.4-7.3M440,182.1c-.5,0,7.7,9.3,8,8.3.6-.4-7.6-8.9-8-8.3M656.6,185.3c-2.3,5.1,4-5.6,4.9-.9,4.4,2.9-2.1-6.4-4.9.9M491.6,184.2c1.3,2.1-4.1-1.4-1.1,1.8,2.1,2.3,4.4,2.8,2.5.5-1.5-1.8,0-2,2-.2,1.9.9-5.9-6.4-3.5-2.1M557.8,186.1c2.7,3.5,10.6,11.3,5,3.2-3.7-5,1.4,0,2.2-1,0-1.9-3-3.9-3.9-2.5-.9,2.4-9.8-6.5-3.4.2M486,185.5c7.3,9.9,10,7.5,1,0-1.6-1.3-1.9-1.3-1,0M512.5,186.3c10.3,10.4-2.2-7.2-.1,0M469,185.3c0,.2,2.1,2.6,4.6,5.2,7.7,8.5-5.5-9.5-4.5-5.3M526,185.8c.7,6.1,7-1.6,4,0,.4,1.9-4-1.4-4,0M545,188.5c9.6,7.3-6.5-8.5-.1,0M571,187.8c1.7,3-.9,1.4-1,3.2,0,1.5,1.7,1.2,2.3-.4,1.1-.7-2.7-6.1-1.3-2.8M532.5,189c1.6,3.6-4-.9-1.2,2.7,2.2,1.6.1,4.2,2,3.7,1.8-1,4.5,4.7,6,4.6,1.5-.6-11.4-11.7-3.1-6.9,4.5,3.2-6.9-11.3-3.7-4.1M246.6,188.8c1.9-.4,42,6.9,29.7,3.4-12.7-3.8-28.3-5.6-29.6-3.4M498,191c9.4,9.5-4.4-9.8.1,0M502,188.6c5.2,8.2,16.9,14.9,0,.1M9,192.5c0,4.3,2.5,8.5,5.1,8.5,5.5,3.5-7.3-19.7-5.1-8.4M560,191.9c6,9.2,17.6,17.7,5.1,3.6.1-1.4,6.8,6.5,6,3,0-1.4.4-1.5,1.2-1,2,1.2-1.9-2.8-.5-2.6-1.7-3.8-6.9,1.9-10-2.8-1.9-1.7-2.5-1.8-1.6-.2M515,198.6c4.1,4.5,7.9,8.2,8.3,8.2,5.1,3.1-21.4-22.5-8.3-8.3M554,191.5c0,.6,2.5,3.5,5.5,6.5,14.5,14-4-6.9-5.5-6.5M586.2,192.1c2.2,1.1,2.4,6.7,5.2,3.4.4-2.1-4.7.9-1.1-3.5,1.1-1.2,1-1.2-.4-.2-1.3,2-6-2.8-3.5.3M243,193.8c-8.9,3.4,7.4,29,12.2,31.6,2.7.6,2.6,12.6,5.8,12.5,3.4.4-3.3-5.9.3-3.1,1,1.6,4.1-.5,3.4.8-.8,1.4,7.4,3,3.4,4.2-2,0-.9-.4-.5-1,.5-2.5-3.2.2-.4,1.5,1.5.5-.7,4.3.9,4.5.7-3.6,3.2,0,2,1.7-1.1,4.3,2-2.5,3.8.4,3.7,3.5-1.2-3.8,2.4-.4,3.7,2.4,2.5,1.1,1-1-.8-5.4,6.4,5.5,2.6-.7-3.9-5.1.4-1.5,0-4,0-4.2,1.9-4.8-1.6-8.5-8.3-6.4-26.2-34.9-34.8-38.5M473.7,198.5c2.8,3.3,6.1,6.9,7.4,8,7.4,6.8-20-22.8-7.4-7.9M473,193.6c-.7.4,9.7,10.8,10,10.2.7,0-9.7-11.3-10-10.2M481,193.7c-.2.8,5.7,5.9,4.6,7.1-2.8-.8-8.7-7.3-2,.4,5.1,5.8.9-3.6,5.3,1.7,6,5.7-7.8-10.7-7.8-9.2M518,197.3c2.5,2.6,4.6,4.8,4.8,4.8,3.6,1.9-12.6-12.6-4.8-4.7M576.4,195.4c-.8,3.6,6.6,6.7,2.1,2.6-3-4.7,1.8.9,3.3-1.7,1.2-1.3,1.1-1.4-.8-.8-2.5,1.5-3.7-4.9-4.7-.2M295.5,198.4c1.9.8,15.3,3.8,7,1.2-1.9-.8-15.3-3.8-7-1.2M490.6,200.9c14.3,12.2-11.1-12.8,0,0M471.8,200.5c1,2.1,7.2,8.3,7.2,7.3.8-.6-7.7-8.8-7.2-7.2M584.1,202.7c4.3,4.6,6.3,6.3,6.9,5.7.8-1-15.6-16-6.9-5.7M507,201.7c-.4.4,4.6,5.8,5,5,.4,0-4.7-6.4-5-5M589,202.9c1.8,7,17.3,7.5,3.7.1-1.6,0-.3.7.7,1.5,4.7,5.9-4.1-1.9-4.4-1.6M597,203.5c5.8,8.5,6.5,1.6,0-.1M317.1,207.4c.8.8,16.9,5.6,18.3,5.5-.5-.9-22.3-7.3-18.3-5.5M273.4,217.5c33.7,15.2,105.6,17.3,124.7,53.7,36.1,29,24.3-40-20.4-46.7-9.3-2.8-56.5-14.7-47.6-11.6,11.7,4.1,70.4,25.1,65,25.1s-.2,1.2,1.5,3c6.1,3.1,11.3,13.1,16.2,19,.8,0-3.5-6.7-.8-4.6,2.6.9,11.7,21.6,3.5,10-3.2-9.7,1.6,14.8-9.8,9.5,5.9-34-111.8-53.7-132.2-57.7M679.5,221.6c13.7,31-34,40.7-10.9,64.9-1,8,14.6-12.9,14.5-15.4-.9-1.6-.8-2.1,0-2.1,1.7.3,0-5.9,1.1-6,1.1,2.5,3.3.2,2.5,2.6,8.3-12.6,1,46.8-3.3,45.4-3.3,1.1,5.3,31.9,10.3,26.5,6.7-6.8,2-9.9-2.6-16.4-15.1-26.5,9.4,3.9,2.9-46.4-1.1-35-2.5-48.5-14.6-53.1M121.1,231.3c-1.3,3.5,1.1,12.2,3.8,13.2,8.2,2,1-23.6-3.8-13.2M281,240.5c1.7,2,1,4.7,2.3,3.9,3.1-.3-2.4-8.7-2.2-3.9M168.4,249.5c-.3,4.7-.5,4.9,0,9.1-.6,4.5-2.1-2-2.2,2.2,3.2,4.7,2.4,4.5-.9,9.1,6.6,13.3,5.7-33.6,3.4-20.4M568.1,250.3c2.9,4.3-5.3-3.3-1.9,1.5,3.5,4,2.8,4.5-1.2.8-6.1-7-1.9,3-7.3.6-1.5-1.5-3.1-1.2-1.2.9,4.8,7.1-9.1-7.8-4.5-.6,1.7,2.1,0,1.9-2.4-.2-2.5-2.2,4.5,6.4,3.4,6.8,2.9,11.3-5.3-6-7.9-1-1.2.8-1.2,1.1.2,2.5,2.7,2.8,1.4-2.5,4.8,1.4,3.7,3.2-.7,2,.8,4.9,2.4,2.8-8.2,1.5-4.2,3.9,3.8,4.3-2.6-1.7-3.6.4-5.2,5.9,15.1.1,8.1,4.8,5.5-5.5,11.4,2.3,4.3,2.2-27,2.1,34.9,7.3,28.2-1.7-3.5-3.4,1.4,3.9-2.2.6-2.6-2.9-4.2,4.3-4.2-2.7-.4-8.2-5.4,6.9-6.8-2.5.7-1.1-.8-1-2.5.1.1,1.1-6.6,8.8-6.8,4.6,1.6-4.4,5.8-2.3,5.5-8.5,2.2,6.3,4.9-4,4.7,2.6-.5,2.8,0,3.1,1.9,1.1,3.3-1.7-6.2-6.4-3.5-8.2,2.6-2.2-1.3-10.3,1.7-10.3,7.2,4.9-8.1-11.9-3.6-3.9M575,248.7c-.7,1.4-5.5.1-1.5,2.9,1.9.5.9,3.4,3,3.4,2-1.6,4.1-1.6,4,1.8-.9,2.3,1.3,4.4,2.9,2.9,1.6-.7-.4-4.5,1.4-3.2,1,.6,1.1.2.5-1.6-2.3-5.3,3.9,2.6,2.1-.9-3.4-6.9-2.8-.3-6.1-3.4-6.6-4.2,2.6,4.2,2.3,5-.2,1.2-8.5-8.5-8.7-6.9M590.6,250.5c1.9,4.3-3.1-2.7-2.6.8,0,2,2.2,3.4,2.8,1.8,0-2.2,5,2.4,5.2.8-.2-.3-7.5-6.7-5.5-3.4M85,255.3c0,1.5,2.9,5.7,3,4.2.4-1.2-2.2-8.5-3-4.1M572.7,255.8c-3,.5,4.8,9.9.4,10.3-3.2-.2,1.2,1.7,1.5,3.5,3.9,5.9,1.5-2.1,7.8.5,6.5,1.5,3.7-1.9,2.7-4.9,0-.9.4-.7,1,.7,4.1,8.1,3.3-8.6-4.3-4.2-3.9.5-3.6-3.7-7.5-3.7,1.7-.3,4.1-2.4-1.8-1.9M554.8,257.5c1.3,2.5,6.2,7.2,6.2,5.9,1.4.2-6.9-9-6.2-5.9M563.1,258.8c0,.9,5.9,5.6,5.9,4.8,0-.5-6.4-7.6-5.9-4.7M588.5,260.8c0,2.6,1.6,5.2,3.1,5.2,2.7.5-5.1-4.8-.8-3,8.1,5.2-3.3-8.6-2.3-2.1M192.6,263.3c-2,8.6,17.9,20.9,5.3,6.1-3.4-3.5-5.3-13.6-5.3-6.1M207,261.1c0,1.5,3.1,9.1,4.5,11.1,4,2.9-4.7-14.3-4.5-11.2M594.6,279.9c-4.8,2.8,8.3.9,9.9,1.1,6.7-1.3-7.8-2.8-9.9-1.1M201.2,287.7c-.8,1-2,10.5-.6,10.3,1.2-1.2,4.1-13.8.6-10.3M327.5,292.6c2.8.8,5.5,1.4,6,1.3,2.4-.6-17.5-4.8-6-1.3M362.5,301.4c1.9.8,15.3,3.8,7,1.2-1.9-.8-15.3-3.8-7-1.2M215.2,334.3c-6.6,9.4,1.1,3.6,1.8,5.7,1.9,2.5,1-10.7-1.7-5.7"/>
  <path class="cls-2" d="M371.2,25.7c1.5.2,4,.2,5.5,0,4.1-.5-9.7-.5-5.6,0M398.8,25.7c2.6.5,11.4-.3,2.7-.4-3.3,0-4.5.2-2.7.4M426.9,26.8c.5.7,9.8,6.6,6.1,3.4-.5-.7-9.8-6.6-6.1-3.4M288,27.1c-16,.8-100.5,6.2-89.5,8.4,22.5-3.6,72.2-5.4,78.2-5.7,5.2-3-10.4,12.6-5.4,4.7,4.2-6.3-7.3,4.7-10.2,2.7-2.6,2.1-2.5,3.1-5.3.5-4.3-1.6,2.7,3.7-1.2,2-1.5-.5-1.7-.3-1.2,1.2-1.1,3.2.7,5.9-1.2,7-3.4,1.8,3.2.5-2.2,2.6-2.6,1.1-3.7,1.2-4.8.3-2.9-1.8,1.1,10.5,2,7.4,1.1,0-3.2,3.4,1.1,2.7,2.4,0,2.4.4,2.1.9,0,1.5-9.5-.9-5,1.3,1.5,0,3,6.4,1.9,4.5-1.2-1.7-2.8-1.5-4.6-2.7-1,.6,6.6,6.6,1.5,4.6-2.4-1,4.4,6.3,4.6,7.2.8.3,1.1,0,.7-.6,1.2-5.4,2.3,2.8,1,4.5.4-1.5,7,4.9,4.1,1.5-3.7-5.3,4.2.6,3-1-1.5-2.8,7.2,3.6,3.3,2.7-3.4-.1.7,14.2.6,4.1,3.6.5,1.4,17.9,9.6,18.3,2.5,1,3.5,3.6,5.6,5.6-1.1.9-11.3-10-3.5.3-.3,1.3-5.3-.5-2,1.8,1.5.2,1.8,5.3,3.9,5.1,10.2,1.8,36.6-.4,38,2,4.4-5.1,8,3.6,8.2-.9,12.5,2.9,21.3,3.8,49.4,1.2,54.3-4.7,18.7,1.6,4.3-4.5-8.6-1.2,28.1-2.7,11.3-3.8-5.6,1-11.1-6.9-6-2.7,2.8,2.6,3.4,1.3.9-1.9-4.6-6.7,3.5,3.3,2.7-.4-.7-5.8,6.3,1.7.3-6.3.1-2.4,4,3.4,3.1-1.3,1.7-2.4,1.9,2.8,2.9,1.9,1.7,0-3.2-6.6-2.6-6.2.8,1.3,4.4-2.9,3.3-.2-1.2,1.2,3.5,7.3,1.5,7.7-2.9,2.5,1.7,3.9,2.9-4,1-.7.9-.8-.4-.4-1.2,1.1-5.4-2.8-2.5-1.7,1.7-.5,4.7-.8,5.6-2.2,1-1.2-7.4-2.5-3-2.9,4.3-.7-6.5-3.4-1.8-4.8,1.6.3-10.5-7.6-7.7-8.3,2.6-.4.7,1.9,2.1,1.4,1.1-3.1-3.7-2.4-3.4-4.6,1.1-4.3,3,2,4.9,1.7,2.2-.4,5.8,1.2,5.8,2.7,0,2.6,3.1,1.6,2.3,4.2-.8,3.2,1.4-2.7,1.9.3,2.9,1.4-4.3-4.3-3-5.6.8-2.2-1.1-.1-1.8-1.4,1.4-3-1.2-.6-3.7-4.7-12.8-14,5.9,10.8-3.9.7-4.6-6-2,2.9-6.3,1.3-5.6-2.6,5.4-1.6-.9-3.6-2.9,0-1.2-9,3.1-4.9,5.4,3.4-2.7-2.4.3-3.8.7-.8.5-.9-.4-.2-1.8,2.4-4.4-3-6.1-2.2-3,0-6-3.4-1.4-3.6,1.3-2.7-7.8-1.9-4.7.6,3.5,2.7-1.2,1.2-2.1,2.6,1.1-6.9-.7-6.8-4.4-12.9-.7,1.4-4.6-3.8-4.3-1.3,0,2.6-2.1-1.9-1.2-2.5.9-1.6-5.3,4.7-4.3,2.7,1.4-2.5-.3-5-1.9-2.8-2.5,1.9,2.9,7.4-1.4,7.1.5-2.6-.1-3.6-1.9-3.1-8.9-.5-2.2-9.8-9.7-8.6-4.3-3.2,2.1,4.1.7,3.6-2.3.8-16.8-10.6-9.7-3.2,7.4,6.9-4.7-1.3-7.3-1.7-1.5-1.8,0-2.1,1.8-.4,4.2,3.9-1.1-4.7-1.8-3.3-.4.3-8.8,2.7-7.4.3,2-3-6.4,3.1-2.7-1.2,2.2-3.1-3.6,2.3-4.3,1.5-1.7-.7,2.3-2.2.6-2.4-3.1-.2-2.2,4.5-3.1,3.5-1.7-.7.4-3.4-1.1-3.7-2,4-12.4-1.9-11,4.6,2.6,3.3-5.1-.9-1-2.3-2-2.2-4.4.3-3.7,2.4-10.6,2.6,5.7-3.1-5.3-3.1-1.1-.2-3.5-3.8-3.2.5,1.6,2.8,5.4,1.1-1,2.5-4.6.2,1.1-1.4-.2-4.5-2.1-3.6,6.5-3.4,3-2.2-4.5.8,38.7-6.4,5.5-3M312.8,26.7c1.8.2,4.7.2,6.5,0,4.4-.5-10.8-.5-6.4,0M145,35.9c-3.7,1,16.5.8,13.7,0-1.4-.9-10.3-.8-13.7.2M446.3,39.7c29,22,15,7.5,0,0M193.7,42.8c11.8,22.7-1-7.2,0,0M370.4,50.4c0,1.7.7,2.4,1.9,2.3,4.4,1.3-2.5-6.3-1.9-2.3M359.9,51.8c4.2,4.5,8.3,1.7,1.6-.8-1.2-.1-6.1-3.2-1.6.8M370.1,61.6c-.5.2,2.7,5,2.5,3.8-1.4-5.4,5.1,2.4,4.5-.8-.1-2.7,1.7.4,2-1.4,0-1.6-1.8-2.3-2.3-.9-.5,2.5-4-3.1-4.7-.2-1,2.5-1.5-1.7-1.9-.3M205.3,64.5c.8,1.7,2.3,3.9,3.2,5,2.2,1.6-7.5-13.2-3.2-5M249,70.5c-1.5,4.6,3.6,1.8,6,4.4.1,1.5-5-1.1-2,.9,3.7,4.2,3.8-4.9,1.8-3.6-4.2,1.7-4.4-6.2-5.8-1.7M252.2,86.6c2,8.5,2.9-6.8,0,0M395,88.1c.8,4,3.9-1.5,4.3,1.5.3,1.2.5,1.2.4,0-.2-1.8-4.7-3.2-4.7-1.5M145.5,98.9c9.3,3.8,6.9-.1,1-.6-2.4-.2-2.6,0-1,.6M178.2,98.7c-7.3,2.2,11.2,2.9,4.7-.7-1.2,0-.7.4-.4,1-.9,3.4-1.1-2.9-4.3-.3M271.2,99.2c4.1,5.8,2.8-5.4,0,0M178.5,103c.4.6,0,.7-.9.4-4.4.2,1.5,1.7,1.7,3.4,1.5,1.9-.3-8.2-.7-3.7M186.4,102.8c.9,2-2.2.5-.4,3.1,1.3,2.4,1.3,3.4,0,2.6-1.4-.9-1.2.9.2,2.4,2,2.7-4.6-.7-2.6-3.3.5-1.6.4-1.7-.8-.6-5.2,5.4,3.5,6.6-1,9-1.8.5.2,5.8-2,3-2.6-2.4,2.5,11.8-2.9,5.8-2.8-2.2,1.9,3.9-2.6,1.8-6.2-.6,1.1,2.3-2.1,2.4-1.3.1-1.3.5,0,1,8-.4,4.5,2.2,8.8,2.6,3.2-1.2,8,6.3,8-.2-1-3.9,2.1-.3,1.1-2.3-1.2-.8,4.2-7.5,1.4-5.3,0,.5-.5,1.2-1.1,1.2-2.6-6.8-.1,8.7-6,4.3-2.2.3-4.9-13.3-2.3-7.6,5.2,9.3-2.3-15.1,4.8-7.4,6.9,8.4-3.4-3.1-.9,5.1.8,3.2,3.3,3.1,4.5-.2,2.1-2.5-5.5-8.2.3-4.6,3.5,1.7.2,4.1,1.5,5.3,5.7,1.8-1.4,7.6-1.4,11.8-2.6,7.1,4.7,2.3,7.2,5.4-1.4,1.9,7.5.1,5.3,1.6-3.3,1.8,6.7,2.4,2.8,1.1-1.2,0-1.2-.2,0-.9,1.6-1.7-4.4-2.2-3.5-5.8-.5-1.7-.4-1.7,1,.1,3.6,4.4-2.6-11.2-3.1-13-1.9-3.4-3.3,2.9-4.5-1.4-.5-2.4,6.9.5,3-3-4.9-3.1-4.6-2.1-2.8,1.1-1.2,0-2.7-1.9-2.7-3.5-.2-1.7-10.7-3.3-5.1-5.5,2.9,0,1.8-.4,2.1-1-.3-.5-5.8-2.2-4.6-4.8.4-.4-1.5-2.1-.5-.4M174,105c1.9,3.2-2.1,1.3-3.3,3.8-5.1,9.6,2.2,6.7,5.3,2-.6-1.4-4,4.3-1.4-2.3,3.3-4.3-3.1-8.2-.5-3.7M264,105.3c6.4,9.8,4.8.5-.1,0M194,107.4c-1.7,2.8,5.9,3.6,1,.6,4.9-.3,2.5-2.6-1-.7M177.6,111.6c-4.2,6.9.9-1.4,1.7,3.3.7,1.2,1.7-8.4-1.7-3.2M189,111.1c0,1.1,5.1.8,5-.2,0-.9-5.2-.9-5,.2M513.4,111.2c-1.2.8-19.2,1.4-20.1,2.4.7.7,44.9-1.8,46.4-2.6,1.7-.9-22.5-.8-26.3,0M460,115.1c-33.2,1.9-67.1,4.2-39.5,3.6,70.9-4,78.9-5.4,39.5-3.5M165.1,122.9c1.8,9.3,1.2-8.8,0,0M305.5,124c-3.3.5-3,.7,1,.8,12.2.3,19.5-3-1-.7M280.5,124.7c-13.2.8-33.5,2.7-33.1,3-1,1.2,78.4-4.5,33.1-3M178.8,126.7c-1,.3-1.8.9-1.8,1.4.2,3.5,9.1-3.8,1.8-1.4M213.7,138.6c-.3.3-.3,1.3,0,2.2.9,3.5-2.7-4-3.1-.2-1.3,4.8,4.9,4,7.4,5.9,4.5,2.4-1.3-10.1-4.2-7.9M89.4,149.6c-6.2,4.5,47.7,33,35.5,19.7-1.5-1.8-1.8-11.3-.4-11.4,2.7,2.9-40.3-24.9-35.2-8.3M19.3,149c1.4,1.1,2.9,2,3.4,2,1.7-.7-9.6-7.2-3.4-2M13,150.6c-2.9,13.5-4.8,50.2,11,53.7.3,3.2,12.8,12,4,3.4-5-2.5,2.1-8.3-1-9.9-24,.3,2-61.8-14.1-47.3M656.1,170.5c2.9,8.1,5.3,1.8,0,0M171.4,202.5c-2.9.3-12.8,16.6-7.5,15.3,8.8-9.5,3.2,6-.2,7-1.5-.7-4.4,6.7-3.4.8-2.7-12.8-7.9,79.1-4,54.7,3,1.4,4-8.2,6.8-1.9.4-12.3,5.3-40.9,12.3-45.1,9.5-10.7-11,10.7-7.3,1,1.8-20.9,37.6-23.8,19.4-30.2-4.4-3.8-11.3-1.3-10.9-2.8,3.2-2.2-1.5-1.1-5.6,1.4M21.9,230.1c-1.8,1.8-2.1,13.7-.5,15.6,5.3-3.3,9-22.9.5-15.6M50.3,243.5c0,2.8.2,3.8.4,2.2.5-2.2-.3-9.4-.4-2.2M670.9,249.2c-25.1,35.1,20.9-26.2,0,0M37.7,244.3c-1.2,3-.9,6.6.4,4.4,1-.8,1-8-.4-4.4M181,246.4c-1.3,3.3-1.1,9.3.7,2.1,1.3-5.9.9-7.1-.7-2.1M172,263c0,11.6-.8,15.6-2.3,11.8-2.2-.9,1.8,9.6,2,5.8-1.8-7.2,11.6-5.9,13.4-1.1,1.9,4.8,7.6,2,9.8,4.4,1.3,1.5,2.2.7,2.9-2.2,3.1-6.3-5.8-7.2-5.7-12.3-1.3-3-4.5-21.2-8.7-13.2-6.6,10.5-12.1-21.9-11.3,7M190.4,252.6c1,4.3,4.8,10.9,5.5.9.7-8.1-3.2,4.3-3.9.3.3-1.7-2.8-4.2-1.6-1.2M50.3,258.5c0,3.9.2,5.3.4,3.2.5-2.9-.3-13.3-.4-3.2M652,267.7c0,7.7,8,.5,0,0M686.2,269.5c-.7,1.1,1.4,12.1,1.4,16.1.3,1.1,2-26.9-1.2-16.1M187.3,274.7c.8,2.8-2.9,5.2,1.5,6.3,3.1.9-1.5-11.7-1.5-6.3M64.8,277.9c-7.3,7.3,5.2-.7,4-2.4-.8-.8-2.2.7-4,2.4M219.2,276.9c-.8,9.2,6.4-1.4,0,0M204,285.7c-1.4,18.2,4,27.6,4.6,20.3-4.1-5.2,5.3-9.1,2.7-16.6,3.6-3.9-8.1-14.3-7.4-3.6M64,283.4c-3.3,1.4-20.8,8.5-11.9,7.3.4-1.1,5.9,5.2,4.4,1.2,5.2.4,7.3-2.6,13.6-4.3,2.8-2.7-1.6-7-6-4.1M220.4,282.9c.3.5-.4.7-1.6.3-4.6-2.2,2.9,6.2,3.6,5.4,1.2-1.3,3.8,10,3,3.7-.5-6.7-3.8-13.1-5-9.6M614,286.1c-163.2,28-133.5-15.2-210.8,101.3-42.3,22.9,158.1-21.2,176.7-20.5,36.8-6.2,35.6-5.2,81.2-13.1,19.6-2.9,3.9-7.2-.6-22.6-23.1-46-21.5-45-21.6-37.3-1.2.7-1.2,1,0,1,1.5.7,2.6,6.3,0,7.1-2.4.4,2.4-3.3.7-2.7-1.5,1.8-7.2-6.6-3.5-7.3.2-7-7.6-7.5-21.8-5.7M234.7,293c.3,4.1.9,8.2,1.4,9,1.8,3.5-2.2-25.3-1.4-9M306.7,289.7c-2.7,2.1,3,3.2,1.9,1.4-.3-.5.2-1.1,1.2-1.4,3.2-.9-3-.7-3.1,0M224.6,301.8c-.5,3.8-2.2,1.5-2.6,3.7,1.9,7.3,5.6-11,2.6-3.6M236.2,311.5c.9,21.3,1.8,9.6,2.9,4.4,2.1,2.1-4-12.7-2.7-4.5M192.8,311.1c-4.6,3,2.8,5.7,4.7,2.1,6.5-8.3,5.4,4.4,11-.2,11.4-2.7-12.3-7-15.7-1.8M184.1,317.5c2,8.6-.4,10-2.1.8,1.3-5.5-5.9.5-6-3.1-1.2-4.2-1,4.3,1.1,3.1,4,7.1,6.8,14.4,12.5,3.6,2.6-2.1,2.7-5.1.2-5.1-4.3,0,4.2,1.4-.3,2.5-1.1.4-2.3.9-2.6,1.1-.9.5.2-4.9-.9-4.1-1.7,0-1.3-5.3-1.8,1M133.5,322.2c1.1,1.8,29,22.6,24.6,16.6-.7-1.8-24.5-14.3-11.3-10.2,4.4.8-15.7-8.5-13.4-6.3M210.1,324.9c-1,3-1.4,9.6-5.7,12.5-3.6.4,3.9,15.3,5,7.3,1.7-14,21.2-17.4.8-19.8M237,333.1c2.6,6.4-10.8,47.2-5,34.5,5.4-7.6,8-51.8,4.9-34.5M188,330.8c13.9,1.4,7.8-2.5.1,0M650,334c0,1.3,4,1.3,4,0,0-1.3-4-1.3-4,0M198.2,338.9c-2.3,1.8-6.2,7-6.2,8.4.4,3.6,15.5-14,6.2-8.5M164,343.6c2.1,7.2,5.4.4-.1,0M253.7,350c.3,4.1.7,7.7.9,7.9,1.5,2.3-1.8-23.4-.9-7.9M439.5,348.4c-11.4,7.4-18.3,23.8-23.3,36.1,6.1-5.6,23.4-34.2,29.3-34.5,4.8-2-2.9-3.6-6-1.6M194.3,356.3c-.8,1.9,4.5,4.7,1.7,4.7-1.3,0-1.3.2,0,1.3,2.9,1.1-.9,11.8,4,7.7,6.2.6-5.5-21.1-5.8-13.7M254.9,364.3c-.5.8.7,29.4,1,9.6.2-12.3-.2-16.2-1-9.5M378.8,395.7c2.4.2,6,.2,8,0,5.3-.5-14-.5-8,0M248.5,399.9c-11.9,6.6,15.2-6.2,0,.1M230.5,404c.8,1-21.5.7-13,2,2.9,2.5,28.5-4.7,13-2.1"/>
  <path class="cls-2" d="M368.8,23.4c1.5.2,4,.2,5.5,0,4.1-.5-9.7-.5-5.6,0M396.3,23.5c2.6.5,11.4-.3,2.7-.4-3.3,0-4.5.2-2.7.4M424.4,24.5c.5.7,9.8,6.6,6.1,3.4-.5-.7-9.8-6.6-6.1-3.4M285.5,24.8c-16,.8-100.5,6.2-89.5,8.4,22.5-3.6,72.2-5.4,78.2-5.7,5.2-3-10.4,12.6-5.4,4.7,4.2-6.3-7.3,4.7-10.2,2.7-2.6,2.1-2.5,3.1-5.3.5-4.3-1.6,2.7,3.7-1.2,2-1.5-.5-1.7-.3-1.2,1.2-1.1,3.2.7,5.9-1.2,7-3.4,1.8,3.2.5-2.2,2.6-2.6,1.1-3.7,1.2-4.8.3-2.9-1.8,1.1,10.5,2,7.4,1.1,0-3.2,3.4,1.1,2.7,2.4,0,2.4.4,2.1.9,0,1.5-9.5-.9-5,1.3,1.5,0,3,6.4,1.9,4.5-1.2-1.7-2.8-1.5-4.6-2.7-1,.6,6.6,6.6,1.5,4.6-2.4-1,4.4,6.3,4.6,7.2.8.3,1.1,0,.7-.6,1.2-5.4,2.3,2.8,1,4.5.4-1.5,7,4.9,4.1,1.5-3.7-5.3,4.2.6,3-1-1.5-2.8,7.2,3.6,3.3,2.7-3.4-.1.7,14.2.6,4.1,3.6.5,1.4,17.9,9.6,18.3,2.5,1,3.5,3.6,5.6,5.6.8,2.1-7-6-6.5-4.2,7.1,8-2.5,3,1,6.3,3.5,10.4,35.7,5,40,5.6,1.7-1.1.6,4.4,1.9,1.5,2-2.5,7.1-1.8,7.1.9,1.9,0,.2-5.3,2.6-1.6,1.2,2.3,6.2-2.4,8.3,2,7,3.4,18.9-1.2,39.6-1,31.1-1.6,40.5-2.7,18-2.2-10,.2-12.9,0-12.7-1-11.6-4.3,26.4-2.9,10.3-5.1-4.1-.2-8-1.9-8-3.6.5-1.6,7.5,6.3,2.9-1-4.6-6.7,3.5,3.3,2.7-.4-.7-5.8,6.3,1.7.3-6.3,0-1,.3-1,1.5,0,2.3,2.9,1.7-5.5,3.7,0,3.3,3.2-1.9-5.9-1.8-5.6.8,1.3,4.4-2.9,3.3-.2-1.2,1.2,3.5,7.3,1.5,7.7-3.7,2.7,4,2.6,1.8-2.2,2.4-4.5.7-.3-2.2-3.1-2.4-1.8,5.8-.7,6-3,.2-2.5-4.4-.3-4-2.5,0-1.9,1.8.9,2-.9,0-1.7-6.7-2.6-2.8-4.3,1.6.3-10.5-7.6-7.7-8.3,1.8,0,1.5.4,1.5,1,1.9,2-.3-4-2.1-2.8-2.4-.8,1.1-5.3,2.4-.9,1.4,2.3,7.4.7,7.6,3.9,0,2.6,3.1,1.6,2.3,4.2-.8,3.2,1.4-2.7,1.9.3.3.9.6.9.6.2-1.4-1.8-3.9-5.3-3.9-6.8-1.3.6-2.4-1.1-.8-1.8-.9,1.5-8.9-10-9.2-6.7,0,1.8.4,1,.8,1,1.6.7,6,10.3,0,3.1-4.6-6-2,2.9-6.3,1.3-4.9-3.1,1.4-.9,1-2.6-4.2-.4-4.8-9.3,1.2-5.9,5.4,3.4-2.7-2.4.3-3.8.7-.8.5-.9-.4-.2-.7,1.4-15.8-5.7-7.5-5.8-.2-3.3-8.6-1.6-3.5,2.1,0,1.5-3-.4-3.3,1.1-.3.7-.4,0-.3-1.3,2.8-4.4-2.8-8.6-4.1-11.6-.7,1.4-4.6-3.8-4.3-1.3,0,1.1-.2,1.2-.9,0-.1-6.6-3.1,1.8-4.6.2,1.4-2.5-.3-5-1.9-2.8-2.6,2.3,2.1,4.9-.3,6.8-2.2,1.9.3-4.5-3-2.8-6.6,1.4-4.3-9.6-7.6-8.6-.6.9-1.1.9-2.1,0-4.3-3.2,2.1,4.1.7,3.6-2.3.8-16.8-10.6-9.7-3.2,7.4,6.9-4.7-1.3-7.3-1.7-1.5-1.8,0-2.1,1.8-.4,3.7,2.6-.7-5.1-3.6-2.6-1.2-1-6.9,2.6-5.6-.4,1.5-3.2-2.7,1.8-3.5.4,3.1-5.6-1,0-3.5,0-1.7-.7,2.3-2.2.6-2.4-3.5,0-2.9,7.3-3.7,1.3,0-3.9-1.7,1.2-4.6.3-3.8,0-2-2.3-5.5-.2-4.5,1.5,2.1,6.7-3.1,3-2.4-2,3.7-2.4-1.4-3.1-2.4-.6-1.1,3-1.6,3.2-.9-.7-3.1,2-3.7.4,2.6-1.9,3.7-3.7-1.6-3.5-4.7-4.5-4.2,2.9-.3,2.1-5.9,1.6-5.5,2.2-4.1-3.6-2.1-3.6,6.5-3.4,3-2.2-1.8.8-1.8.9-.2.9,4.1-3.7,35-5.7,5.7-3.9M310.3,24.5c1.8.2,4.7.2,6.5,0,4.4-.5-10.8-.5-6.4,0M142.5,33.7c-3.7,1,16.5.8,13.7,0-1.4-.9-10.3-.8-13.7.2M443.8,37.4c29,22,15,7.5,0,0M191.2,40.5c11.8,22.7-1-7.2,0-.1M367.9,48.1c0,1.7.7,2.4,1.9,2.3,4.4,1.3-2.5-6.3-1.9-2.3M357.4,49.5c4.2,4.5,8.3,1.7,1.6-.8-1.2-.1-6.1-3.2-1.6.8M367.6,59.3c-.5.2,2.7,5,2.5,3.8-1.4-5.4,5.1,2.4,4.5-.8-.1-2.7,1.7.4,2-1.4,0-1.6-1.8-2.3-2.3-.9-.5,2.5-4-3.1-4.7-.2-1,2.5-1.5-1.7-1.9-.3M202.8,62.2c.8,1.7,2.3,3.9,3.2,5,2.2,1.6-7.5-13.2-3.2-5M246.5,68.2c-1.5,4.6,3.6,1.8,6,4.4.1,1.5-5-1.1-2,.9,3.7,4.2,3.8-4.9,1.8-3.6-4.2,1.7-4.4-6.2-5.8-1.7M249.7,84.3c2,8.5,2.9-6.8,0,0M392.5,85.8c.8,4,3.9-1.5,4.3,1.5.3,1.2.5,1.2.4,0-.2-1.8-4.7-3.2-4.7-1.5M143,96.6c9.3,3.8,6.9-.1,1-.6-2.4-.2-2.6,0-1,.6M175.8,96.4c-7.3,2.2,11.2,2.9,4.7-.7-1.2,0-.7.4-.4,1-.9,3.4-1.1-2.9-4.3-.3M268.7,96.9c4.1,5.8,2.8-5.4,0,0M176,100.7c.4.6,0,.7-.9.4-4.4.2,1.5,1.7,1.7,3.4,1.5,1.9-.3-8.2-.7-3.7M183.9,100.5c.9,2-2.2.5-.4,3.1,1.3,2.4,1.3,3.4,0,2.6-1.4-.9-1.2.9.2,2.4,2,2.7-4.6-.7-2.6-3.3.5-1.6.4-1.7-.8-.6-5.2,5.4,3.5,6.6-1,9-1.8.5.2,5.8-2,3-2.6-2.4,2.5,11.8-2.9,5.8-2.8-2.2,1.9,3.9-2.6,1.8-2.5-.6-3.6.8-1.3,1.7,1.7,1-4.1.4-.8,1.7,8-.4,4.5,2.2,8.8,2.6,3.2-1.2,8,6.3,8-.2-1-3.9,2.1-.3,1.1-2.3-1.2-.8,4.2-7.5,1.4-5.3,0,.5-.5,1.2-1.1,1.2-2.6-6.8-.1,8.7-6,4.3-2.2.3-4.9-13.3-2.3-7.6,5.2,9.3-2.3-15.1,4.8-7.4,6.9,8.4-3.4-3.1-.9,5.1.8,3.2,3.3,3.1,4.5-.2,2.1-2.5-5.5-8.2.3-4.6,3.5,1.7.2,4.1,1.5,5.3,5.7,1.8-1.4,7.6-1.4,11.8-2.6,7.1,4.7,2.3,7.2,5.4-1.4,1.9,7.5.1,5.3,1.6-3.3,1.8,6.7,2.4,2.8,1.1-1.2,0-1.2-.2,0-.9,1.6-1.7-4.4-2.2-3.5-5.8-.5-1.7-.4-1.7,1,.1,3.6,4.4-2.6-11.2-3.1-13-1.9-3.4-3.3,2.9-4.5-1.4-.5-2.4,6.9.5,3-3-4.9-3.1-4.6-2.1-2.8,1.1-1.2,0-2.7-1.9-2.7-3.5-.2-1.7-10.7-3.3-5.1-5.5,2.9,0,1.8-.4,2.1-1-.3-.5-5.8-2.2-4.6-4.8.4-.4-1.5-2.1-.5-.4M171.5,102.7c1.9,3.2-2.1,1.3-3.3,3.8-5.1,9.6,2.2,6.7,5.3,2-.6-1.4-4,4.3-1.4-2.3,3.3-4.3-3.1-8.2-.5-3.7M261.5,103.1c6.4,9.8,4.8.5-.1,0M191.6,105.2c-1.7,2.8,5.9,3.6,1,.6,4.9-.3,2.5-2.6-1-.7M175.1,109.3c-4.2,6.9.9-1.4,1.7,3.3.7,1.2,1.7-8.4-1.7-3.2M186.5,108.8c0,1.1,5.1.8,5-.2,0-.9-5.2-.9-5,.2M511,108.9c-1.2.8-19.2,1.4-20.1,2.4.7.7,44.9-1.8,46.4-2.6,1.7-.9-22.5-.8-26.3,0M457.5,112.8c-33.2,1.9-67.1,4.2-39.5,3.6,70.9-4,78.9-5.4,39.5-3.5M162.6,120.7c1.8,9.3,1.2-8.8,0,0M303,121.7c-3.3.5-3,.7,1,.8,12.2.3,19.5-3-1-.7M278,122.4c-13.2.8-33.5,2.7-33.1,3-1,1.2,78.4-4.5,33.1-3M176.3,124.4c-1,.3-1.8.9-1.8,1.4.2,3.5,9.1-3.8,1.8-1.4M211.2,136.4c-.3.3-.3,1.3,0,2.2.9,3.5-2.7-4-3.1-.2-1.3,4.8,4.9,4,7.4,5.9,4.5,2.4-1.3-10.1-4.2-7.9M87.8,143.3c-7.1-9.2-4.4,9.5,13.6,18.5,17.8,8.8,25.7,11,20.9,5.3-1.5-1.8-1.8-11.3-.4-11.4,3.1,1-38.3-18.8-35.2-13.9M16.8,146.7c1.4,1.1,2.9,2,3.4,2,1.7-.7-9.6-7.2-3.4-2M10.5,148.3c-2.9,13.5-4.8,50.2,11,53.7.3,3.2,12.8,12,4,3.4-5-2.5,2.1-8.3-1-9.9-24,.3,2-61.8-14.1-47.3M653.6,168.2c2.9,8.1,5.3,1.8,0,0M168.9,200.2c-2.9.3-12.8,16.6-7.5,15.3,8.8-9.5,3.2,6-.2,7-1.5-.7-4.4,6.7-3.4.8-2.7-12.8-7.9,79.1-4,54.7,3,1.4,4-8.2,6.8-1.9.4-12.3,5.3-40.9,12.3-45.1,9.5-10.7-11,10.7-7.3,1,1.8-20.9,37.6-23.8,19.4-30.2-4.4-3.8-11.3-1.3-10.9-2.8,3.2-2.2-1.5-1.1-5.6,1.4M19.4,227.8c-1.8,1.8-2.1,13.7-.5,15.6,5.3-3.3,9-22.9.5-15.6M47.8,241.2c0,2.8.2,3.8.4,2.2.5-2.2-.3-9.4-.4-2.2M668.4,246.9c-25.1,35.1,20.9-26.2,0,0M35.3,242.1c-1.2,3-.9,6.6.4,4.4,1-.8,1-8-.4-4.4M178.5,244.2c-1.3,3.3-1.1,9.3.7,2.1,1.3-5.9.9-7.1-.7-2.1M169.5,260.7c0,11.6-.8,15.6-2.3,11.8-2.2-.9,1.8,9.6,2,5.8-1.8-7.2,11.6-5.9,13.4-1.1,1.9,4.8,7.6,2,9.8,4.4,1.3,1.5,2.2.7,2.9-2.2,3.1-6.3-5.8-7.2-5.7-12.3-1.3-3-4.5-21.2-8.7-13.2-6.6,10.5-12.1-21.9-11.3,7M187.9,250.3c1,4.3,4.8,10.9,5.5.9.7-8.1-3.2,4.3-3.9.3.3-1.7-2.8-4.2-1.6-1.2M47.8,256.2c0,3.9.2,5.3.4,3.2.5-2.9-.3-13.3-.4-3.2M649.5,265.4c0,7.7,8,.5,0,0M683.7,267.3c-.7,1.1,1.4,12.1,1.4,16.1.3,1.1,2-26.9-1.2-16.1M184.8,272.5c.8,2.8-2.9,5.2,1.5,6.3,3.1.9-1.5-11.7-1.5-6.3M62.4,275.6c-7.3,7.3,5.2-.7,4-2.4-.4-.4-2.2.7-4,2.4M216.8,274.6c-.8,9.2,6.4-1.4,0,0M201.5,283.4c-1.4,18.2,4,27.6,4.6,20.3-4.1-5.2,5.3-9.1,2.7-16.6,3.6-3.9-8.1-14.3-7.4-3.6M61.5,281.2c-3.3,1.4-20.8,8.5-11.9,7.3.4-1.1,5.9,5.2,4.4,1.2,5.2.4,7.3-2.6,13.6-4.3,2.8-2.7-1.6-7-6-4.1M218,280.6c.3.5-.4.7-1.6.3-4.6-2.2,2.9,6.2,3.6,5.4,1.2-1.3,3.8,10,3,3.7-.5-6.7-3.8-13.1-5-9.6M611.5,283.8c-163.2,28-133.5-15.2-210.8,101.3-42.3,22.9,158.1-21.2,176.7-20.5,36.8-6.2,35.6-5.2,81.2-13.1,19.6-2.9,3.9-7.2-.6-22.6-23.1-46-21.5-45-21.6-37.3-1.2.7-1.2,1,0,1,1.5.7,2.6,6.3,0,7.1-2.4.4,2.4-3.3.7-2.7-1.5,1.8-7.2-6.6-3.5-7.3.2-7-7.6-7.5-21.8-5.7M232.2,290.7c.3,4.1.9,8.2,1.4,9,1.8,3.5-2.2-25.3-1.4-9M304.2,287.4c-2.7,2.1,3,3.2,1.9,1.4-.3-.5.2-1.1,1.2-1.4,3.2-.9-3-.7-3.1,0M222.1,299.5c-.5,3.8-2.2,1.5-2.6,3.7,1.9,7.3,5.6-11,2.6-3.6M233.7,309.2c.9,21.3,1.8,9.6,2.9,4.4,2.1,2.1-4-12.7-2.7-4.5M190.3,308.9c-4.6,3,2.8,5.7,4.7,2.1,6.5-8.3,5.4,4.4,11-.2,11.4-2.7-12.3-7-15.7-1.8M181.7,315.3c2,8.6-.4,10-2.1.8,1.3-5.5-5.9.5-6-3.1-1.2-4.2-1,4.3,1.1,3.1,4,7.1,6.8,14.4,12.5,3.6,2.6-2.1,2.7-5.1.2-5.1-4.3,0,4.2,1.4-.3,2.5-1.1.4-2.3.9-2.6,1.1-.9.5.2-4.9-.9-4.1-1.7,0-1.3-5.3-1.8,1M131.1,320c1.1,1.8,29,22.6,24.6,16.6-.7-1.8-24.5-14.3-11.3-10.2,4.4.8-15.7-8.5-13.4-6.3M207.6,322.7c-1,3-1.4,9.6-5.7,12.5-3.6.4,3.9,15.3,5,7.3,1.7-14,21.2-17.4.8-19.8M234.5,330.8c2.6,6.4-10.8,47.2-5,34.5,5.4-7.6,8-51.8,4.9-34.5M185.5,328.5c13.9,1.4,7.8-2.5.1,0M647.5,331.7c0,1.3,4,1.3,4,0,0-1.3-4-1.3-4,0M195.7,336.6c-2.3,1.8-6.2,7-6.2,8.4.4,3.6,15.5-14,6.2-8.5M161.5,341.3c2.1,7.2,5.4.4-.1,0M251.2,347.7c.3,4.1.7,7.7.9,7.9,1.5,2.3-1.8-23.4-.9-7.9M437,346.2c-11.4,7.4-18.3,23.8-23.3,36.1,6.1-5.6,23.4-34.2,29.3-34.5,4.8-2-2.9-3.6-6-1.6M191.8,354c-.8,1.9,4.5,4.7,1.7,4.7-1.3,0-1.3.2,0,1.3,2.9,1.1-.9,11.8,4,7.7,6.2.6-5.5-21.1-5.8-13.7M252.4,362c-.5.8.7,29.4,1,9.6.2-12.3-.2-16.2-1-9.5M376.3,393.5c2.4.2,6,.2,8,0,5.3-.5-14-.5-8,0M246,397.7c-11.9,6.6,15.2-6.2,0,.1M228,401.7c.8,1-21.5.7-13,2,2.9,2.5,28.5-4.7,13-2.1"/>
  <path class="cls-2" d="M368.5,24.1c-94.7,1.7-47.9-1.1-83.9,5.4,0,1.7-6,1.9-2.2.5,3.6-1.3-5-1.4-3,2.2,1.4,3.2-5,4.8.2,4.5,6.6-1.3,2.1.2,1-2.5-2.6-4.9,12.2,2,5.7,2-4,1.6,4.7,1.6,2.8-.7-1.3-2.5,3.7-2.2,3.7-1.1-.2,1.2-2.6.4-.7,2.3,4.4,4.3-1.3-4.3,5.6-3.8,4.8,4.2,7.3-4.8,8.2,2.9.4.6.4-3.6,3.1-3.5,1.6,0,.6.4-.2.9-2.4,4,3.2-.8,4.2-.9.8.7-3.7,4.3,1.3,1.8,1.5-1.2,1.6-1.2,1.1.3-1.7,2.2,7.1.3,7.4-.3.9-1.3,6,7.4,1.8,3.3-7.7-3,6.9,4.8,8.1,5.3-.8-1.8-9.5-10.2-1-3.8,1.8,2.1,10.4,5.4,7.7,2.6-4.1-6,.4-.5,1.8-2.4,1.2-1.9,2.6,2.5,1.9,3.2-1.1,5.9,9,3.3,7.6,8.5,4.4.2-1.2-5.2,1.4-7.1,1.6-2.2,3.4.4,1.9,2.8-1.1,1.8,5.3-4.1,4.3-2.7-.8.6,1.3,5.2,1.2,2.5-.3-2.7,3.5,2.6,4.3,1.3,3.6,5.8,5.4,6.4,4.4,12.9,7.4-1.9.2-1,2-4.3,2.1-2.3,7.7,1.5,3.3,1.5-3.4,2.3,4.2,2.9,5.6,4.6,1.4,3.4,5.7-1.4,3.8,1-1,1.1-.9,1.8.5,3.4,2.5,3.1-4-2.3-4.3,0-2.8,3.9,0,5.1,2.3,6.4.4,1.6-5.9-.4-1,2.6,7.6-2.1-.8-8.2,9.3,1.4-6.9-14.6-1.9-4,4.9-.3,2.1-.5-2.8,2.5,1.2,2-.2,1.7,2.7,5,3.9,6.8-3.4.6-4.2-8.4-10.8-7.4-1.9,0-4-5.9-4.9-1.7,0,1.1.2,1.7.7,1.4,1-.6,3.6,2.3,2.7,3.2-6.6-5.4,1.9,5.3,5.4,6.5,2,.9-4.1,1.3,1,3.1,3.4,1.4,1.6,2,0,2.6,0,1.4,7.9,2.1,2,3.6-2.6-.8-1.3,2.1-3.6,1.1-1.3-.5-1.4-.4-.4.8,2.8,2.5,4.5-1.1,2.2,3.1,1.9,4.7-5.2,5-1.8,2.2,1.3,1.1-2-11.3-2.5-8-5.7.3,2.1,4.1.3,6.7-1.5.7-.2-2.1-1.8-2.3-2.3-.7.3,4.2-2.7,1.7-5.7-2,4.7,5,0,4-1.7,0-2.1.5-1.7,2.3.7,3.8-7.8-6.9-2.7.4,2.5,3.2,1.9,4.4-.9,1.9-9.9-.3,23.7,4.7,3.7,4.4-5.9.2-13.4,2-9,2.1,2.4,2.8,1.2,2.4,13.8,2.4,22.2-.4-5.6,1.6,11.5,1,4.7-.4,20.7,0,14-1.3,33.7-6.5,77.4-2.7,81.7-4.5,6.8.3,7.1.2,2.3-.4-9.7-1.8,44.7-4.3,42.4-3,.4.7-21.2,1.9-6.2,1.7,28.6,3.8-12.1-19.4-17.1-23.1,10.7,4.2-93.3-68.4-62-44.5,23.9,16.8-8.7-3.4-8.5-6-22.2-20.2-20.1-15.7-77.9-15.1M371.2,25.7c1.5.2,4,.2,5.5,0,4.1-.5-9.7-.5-5.6,0M398.8,25.7c2.6.5,11.4-.3,2.7-.4-3.3,0-4.5.2-2.7.4M426.9,26.8c.5.7,9.8,6.6,6.1,3.4-.5-.7-9.8-6.6-6.1-3.4M270.5,27c-11.2,1.5,11.6.9,17.5-.1,13.1-1.4-15.4-.4-17.5,0M312.8,26.7c1.8.2,4.7.2,6.5,0,4.4-.5-10.8-.5-6.4,0M251.7,28.7c1.8.2,4.9.2,7,0,5.2-.5-11.5-.5-7,0M238.8,29.7c1.6.5,8.6-.3,2.3-.4-2.4,0-3.5.2-2.2.4M255,30c-14.3,1-47.1,4.3-64.9,6.3-.2,2.1,11.4,23.9,6.3,11.5-2.1-3.6-3.5-6.8-2.9-6.8,8.5,18.3,14.5,32,29.6,57.5,17.2,31.1,17.1,31,21.2,30.8-2.2-1.8,95.7-1.4,86.6-7.1-3.1-4.2-7.4,1.2-8.4-1.7-2.5-4-.6,2.1-2.6,1.6,0-2.5-5-3.5-7.1-.9-1.1,2.8-.3-2.5-1.9-1.5-3.5.1-43.9,3.9-39.5-7,4.1.5-1.7-3.6-1.5-4.9-.6-1.8,7.4,6.4,6.5,4.2-2.1-5.3-9.8-4.8-10.5-10.4-1.5-5.2-2.9-8.9-4.2-13.9-.6-1.5-1.1,8.7-2,1.8-2.2-6.3,4.8-4.6-1.1-8.4-3.8-2.4.8,2.8-1.9.2-7.7-5.3,1.3,5.1-3.1,1-1.4-1.2-2.9-1.9-3.4-1.5.9-.7.9-10.8-1-4.5.4.6,0,.9-.7.6-.8-.9-6.1-8.2-4.6-7.2,5.1,1.7-2.5-3.9-1.5-4.6,1.8.1,6,4.5,4.9,2,.8-2.7-6.9-5.8-1-4.6,1.8.2,3.5,0,3.8-.5.4-1.8-6.5.2-3.4-2.6,1.2-2-2.3,0-2.8-7.2-.8-4.2,2.3,1.4,5.8-1.5,1.9-.8,2.7-1.5,1.9-1.5-2.7-.2,3.4-1.9,1-3.5-1.8-2.1,1.6-2.1.5-4.6-.5-1.5-.2-1.8,1.2-1.2,1.6.6,1.6.5.5-.9-2.7-2.6,2.9-.8,2.2.3,1.8,1.3,3.8-3.3,7.2-2.3,1.9.7,11-8.6,6.8-2.3-1,1.6-1.2,2.5-.5,2.5.7-1.4,10.4-8.7,5.9-7.2-4.9,1.7.8-2.3-21.8.2M219.5,31c-4,.5-4,.7,0,.7,12,.2,22.2-2.9,0-.7M199.5,33c-6,1.1,1.1,1.1,8,0,8-1.4-7.2-.6-8,0M139,35.5c-25,8.9-96.6,51.1-43.1,72.8,16.9,7.3,6.1-2.6,20.5-5.5,28-12.5,52.3,4.7,47.3,25.6,4.9,1.8,41.9,14.1,47,17.1,24.6,15.4-2.8-23-3.4-29.1-20.6-33.4-30.1-94.3-68.4-81M145,35.9c-3.7,1,16.5.8,13.7,0-1.4-.9-10.3-.8-13.7.2M370.4,50.4c0,1.7.7,2.4,1.9,2.3,4.4,1.3-2.5-6.3-1.9-2.3M359.9,51.8c4.2,4.5,8.3,1.7,1.6-.8-1.2-.1-6.1-3.2-1.6.8M370.1,61.6c-.5.2,2.7,5,2.5,3.8-1.4-5.4,5.1,2.4,4.5-.8-.1-2.7,1.7.4,2-1.4,0-1.6-1.8-2.3-2.3-.9-.5,2.5-4-3.1-4.7-.2-1,2.5-1.5-1.7-1.9-.3M205.3,64.5c.8,1.7,2.3,3.9,3.2,5,2.2,1.6-7.5-13.2-3.2-5M249,70.5c-1.5,4.6,3.6,1.8,6,4.4.1,1.5-5-1.1-2,.9,3.7,4.2,3.8-4.9,1.8-3.6-4.2,1.7-4.4-6.2-5.8-1.7M252.2,86.6c2,8.5,2.9-6.8,0,0M395,88.1c.8,4,3.9-1.5,4.3,1.5.3,1.2.5,1.2.4,0-.2-1.8-4.7-3.2-4.7-1.5M145.5,98.9c9.3,3.8,6.9-.1,1-.6-2.4-.2-2.6,0-1,.6M178.2,98.7c-7.3,2.2,11.2,2.9,4.7-.7-1.2,0-.7.4-.4,1-.9,3.4-1.1-2.9-4.3-.3M271.2,99.2c4.1,5.8,2.8-5.4,0,0M569.7,103c-3.5,2.7-3.4,3.9.6,7.8,9.9,11.2,7.6-15.8-.6-7.7M178.5,103c.4.6,0,.7-.9.4-4.4.2,1.5,1.7,1.7,3.4,1.5,1.9-.3-8.2-.7-3.7M186.4,102.8c.9,2-2.2.5-.4,3.1,1.3,2.4,1.3,3.4,0,2.6-1.4-.9-1.2.9.2,2.4,2,2.7-4.6-.7-2.6-3.3.5-1.6.4-1.7-.8-.6-5.2,5.4,3.5,6.6-1,9-1.8.5.2,5.8-2,3-2.6-2.4,2.5,11.8-2.9,5.8-2.8-2.2,1.9,3.9-2.6,1.8-6.2-.6,1.1,2.3-2.1,2.4-1.3.1-1.3.5,0,1,8-.4,4.5,2.2,8.8,2.6,3.2-1.2,8,6.3,8-.2-1-3.9,2.1-.3,1.1-2.3-1.2-.8,4.2-7.5,1.4-5.3,0,.5-.5,1.2-1.1,1.2-2.6-6.8-.1,8.7-6,4.3-2.2.3-4.9-13.3-2.3-7.6,5.2,9.3-2.3-15.1,4.8-7.4,6.9,8.4-3.4-3.1-.9,5.1.8,3.2,3.3,3.1,4.5-.2,2.1-2.5-5.5-8.2.3-4.6,3.5,1.7.2,4.1,1.5,5.3,5.7,1.8-1.4,7.6-1.4,11.8-2.6,7.1,4.7,2.3,7.2,5.4-1.4,1.9,7.5.1,5.3,1.6-3.3,1.8,6.7,2.4,2.8,1.1-1.2,0-1.2-.2,0-.9,1.6-1.7-4.4-2.2-3.5-5.8-.5-1.7-.4-1.7,1,.1,3.6,4.4-2.6-11.2-3.1-13-1.9-3.4-3.3,2.9-4.5-1.4-.5-2.4,6.9.5,3-3-4.9-3.1-4.6-2.1-2.8,1.1-1.2,0-2.7-1.9-2.7-3.5-.2-1.7-10.7-3.3-5.1-5.5,2.9,0,1.8-.4,2.1-1-.3-.5-5.8-2.2-4.6-4.8.4-.4-1.5-2.1-.5-.4M174,105c1.9,3.2-2.1,1.3-3.3,3.8-5.1,9.6,2.2,6.7,5.3,2-.6-1.4-4,4.3-1.4-2.3,3.3-4.3-3.1-8.2-.5-3.7M264,105.3c6.4,9.8,4.8.5-.1,0M194,107.4c-1.7,2.8,5.9,3.6,1,.6,4.9-.3,2.5-2.6-1-.7M177.6,111.6c-4.2,6.9.9-1.4,1.7,3.3.7,1.2,1.7-8.4-1.7-3.2M189,111.1c0,1.1,5.1.8,5-.2,0-.9-5.2-.9-5,.2M509.3,113.7c2.6.2,6.7.2,9,0,6.2-.5-15.8-.5-9,0M448.5,117c10.3,1.7,44.2-2.8,0,0M425.2,118.7c2.1.2,5.4.2,7.5,0,5.5-.5-12.9-.5-7.6,0M165.1,122.9c1.8,9.3,1.2-8.8,0,0M108,122.9c-.2,2.9,14.2,9.2,10.5,5.7-2.1-.3-12.8-12.1-10.5-5.7M357,122.1c-61,3.6,49.7-.6,22.5-.8-12.4,0-14.5.4-22.5.8M305.5,124c-3.3.5-3,.7,1,.8,12.2.3,19.5-3-1-.7M280.5,124.7c-13.2.8-33.5,2.7-33.1,3-1,1.2,78.4-4.5,33.1-3M178.8,126.7c-1,.3-1.8.9-1.8,1.4.2,3.5,9.1-3.8,1.8-1.4M136,129.5c-9.2,1.4-10.4,2.3,0,3.4,5.3-.2,15.7-7.5,0-3.3M146.4,136.3c.8,1.7,1,7,2.7,7.8,2-2.2-4.4-15.3-2.8-7.8M213.7,138.6c-.3.3-.3,1.3,0,2.2.9,3.5-2.7-4-3.1-.2-1.3,4.8,4.9,4,7.4,5.9,4.5,2.4-1.3-10.1-4.2-7.9M112.4,151.3c14.2,7,9.6,3.5,12.5,18,11.9,15.4-57.9-25.8-35.3-26.3,9.5,0,1.8.7,3.8,1.5,6.7,2.8,5.2,1.5-2.2-2-8.5-4,15.6,2.1,16.4,4.1M82.2,138.1c6.8,15-.5,17.2,24.8,28.3,33.3,20.3,27.6,1.5,18.2-9.7M13.8,147.7c-9.6,18.8-16.2,173,39.4,143-11.6,1.8,9.1-7.2,15.1-8.3,8.5,3.8-4.5,5.2-2.8,8.1,2.3.9,8.3-3.4,6.8-4.9-8.4-15.9,33.2,21.1,45.7,26.5,1,.7,18.3,14.9,18.5,13-9.7-8.1,6.4.4,10.3,2.4,5.3,4.9-5.5-4.3-3.2,1.6-2.3.7,21.3,17.4,21,15.2,2.9,23.1,34.8,76.6,66.7,62.2,79.4-17.3-32.1-247.8-58.9-205.5-19.2,2.3-20.5,92.9-13.8,126.2-13.4-6.7-28-12.1-50.7-26.2-7.9-7.9-45.2-18.2-33.2-29.3,6.4-4.4-8.5-5.8-8.3-3.3.2,2.2-3.5,2.2-2.6,0-2.2-4-1.5,8.5-5.8,11.1-5.5,6.7-5.9,6.1-5.3-6.2.7-13-.4-36.2-1.3-29.2-.1-21.4-20-106.2-37.1-96.3M13,150.6c-2.9,13.5-4.8,50.2,11,53.7-1.1,0,8.6,10.4,7.1,6.9-1.1-2.5-7.6-6.1-4.3-8.8,4.6-7.9-5.9,0-6.8-8.9,8.5,14.7-5-24.5-4-19.5-1.1,1.1.7,9.7-.8,5.4-2.2-9.8,12.3-38.2-2.2-28.8M18,168.9c2.3,10.4,8.5-5.3-.1,0M655.2,170.2c-2.5,3.3-28.6,74.3-6.5,30,8.6-17.6,9.7-19.1,12-17.6,4,2.5,2.8,7.3-6.7,25.9-8.5,16.6-9,17.9-8.1,21.4-.6,36.3,11.4,69.3,30.4,107.1,5.2-2.9-29.1-53.4,3.9-34.4,8.8-2.5,7.7-1.3,8.8-18.6-1.1-12.3,5.9-29.9-2.8-16.2-19,26-11.5,22.2-23.7,9.4-6.8-8.1,26.1-43.3,17.8-56.6,11.6,17.1-5.3-19.9-9.4-31.4-5.2-10.2-10.8-21-15.8-18.9M656.1,170.5c2.9,8.1,5.3,1.8,0,0M30.7,186c.4,8-4.6,15.7,1.7,20.9,6.6,11.8,0-29.8-1.7-20.9M9,193.4c0,4.8,1.9,7.6,5.1,7.6,6.1,3.6-7.7-20.5-5.1-7.6M244,190.5c-10.6,1.8-13.8,3.2-11.9,5,62.4-7.7,218.3,41.3,183.1,80.3-7.2,6.2-11.7,5-17.2-4.6-11.7-25.8-47.7-30.7-76.4-39.3-25.6-3.7-65.1-31.5-33.9,10.4-4.8,15.8,73.7,34.4,106.2,42.7,26.1,6.4,63.6,1.8,29.2-30.8-21.5-26.5-25.6-28.6-91.3-46.1-78.1-20.8-74.2-20.1-88-17.7M171.4,202.5c-5.3,1.3-14.7,24-4,12.2,6.1,1-9.7,18.4-7.1,10.9-2.6-12.6-7.6,73.4-4.3,56.7-.3-1.5-.2-2.4.3-2,.9.8,3.5-1.5,3.5-3.1,3.9-3.1,3.3,6.4,4-6,.6-9,3.8-25.6,4.6-24.7.8,2.8-8.1,33.8-.6,27,5.9-10.2-2.9-30.8,6.7-39.6,9.8-8.2-3.3,6.3-3.8,10,1,.6,6.9-12,6-1.1-1.3,6.5,1.3,15.8,2,8.4-.5-2.4,2.9-9,2.5-6.4-3.1,10.8.8,6.9.8.3.9-9,2.7-2.7,4.7-8.2.3-3-3.3,4.5-2.6.8.4-1.4.1-2.1-.9-2.1-2,.1-4.1,11.7-5.4,9.9-.4-1.2,3.2-6.7,2-7.7,4.4-19.4-12.8,6.6-11.8-3.4,1.8-20.9,37.6-23.8,19.4-30.2-4.4-3.8-11.3-1.2-10.9-2.8,3.2-2.2-1.5-1.1-5.6,1.4M12.5,214.7c-2.4,26.5,13.7-.6,5.9,1-2.8.3-2.8.2-1-1.2,7.1-6.1,8.7,5.1,9.5,2.9,1.4-3.5.4,2.4,2.9,2,2.3.1,8.9,15,5.6,4.8-3.7-7.4-13.8-13.8-15.7-17.1-2,.4.3-3.8-1.8-1.4-4.2,2.2-6.5-12.3-5.5,8.9M19.1,223.9c-13,5.9,8.1,69,2.5,36-8.5-16.5-6-36.1,4.5-35.6,9.2-.3-4.8-4.6-7-.5M21.9,230.1c-1.8,1.8-2.1,13.7-.5,15.6,5.3-3.3,9-22.9.5-15.6M201.8,234.7c11.3,9.1,20.1,29.8,27.1,42.5,6.8,2.6-22.8-53.4-27.1-42.4M24.6,242.8c-3.6,4.8,5.3,28.2,8.4,11.2,1.1.2,1.6-4.4-.3-1.8-10.2,7.9.1-23.9-8-9.4M670.9,249.2c-25.1,35.1,20.9-26.2,0,0M37.7,244.3c-1.2,3-.9,6.6.4,4.4,1-.8,1-8-.4-4.4M199.3,246.3c2,12,8.9,3.2,1.1-2.4-1.6-1.3-1.7-1.1-1.1,2.4M214.1,255c12.4,22-7.8-19.7,0,0M172,263c0,11.6-.8,15.6-2.3,11.8-2.2-.9,1.8,9.6,2,5.8-1.8-7.2,11.6-5.9,13.4-1.1,1.9,4.8,7.6,2,9.8,4.4,1.3,1.5,2.2.7,2.9-2.2,3.1-6.3-5.8-7.2-5.7-12.3-1.3-3-4.5-21.2-8.7-13.2-6.6,10.5-12.1-21.9-11.3,7M189.2,251.7c-2.8,4.7,4.3,19.8,9.8,23.3,11.3,2.6,19.4,23.5,21.5,17-5.1-9.7-20.7-30-22.7-36.5-.6.3-1,2.4-1,4.5,1,12.7-10-10.9-6-6,1.9,3,1.1-4.1-1.7-2.3M193.7,253.3c-2.4,3.6-1.4,8.2,1,4.8,1.3-1.2,2.2-9.1-.9-4.8M50.3,258.5c0,3.9.2,5.3.4,3.2.5-2.9-.3-13.3-.4-3.2M203,256.5c0,1.5,10.8,22.6,9.7,16,.6-3.8-7.6-17.2-9.7-16M652,267.7c0,7.7,8,.5,0,0M686.2,269.5c-.7,1.1,1.4,12.1,1.4,16.1.3,1.1,2-26.9-1.2-16.1M187.3,274.7c.8,2.8-2.9,5.2,1.5,6.3,3.1.9-1.5-11.7-1.5-6.3M64.8,277.9c-7.3,7.3,5.2-.7,4-2.4-.8-.8-2.2.7-4,2.4M219.2,276.9c-.8,9.2,6.4-1.4,0,0M174.8,279.4c-2.6,2,.4,22.6,3.3,22.6,3.9-1.4.6,14.6,5,9.6-5.4-7.8-.4-39-8.3-32.2M204,285.7c-1.4,18.2,4,27.6,4.6,20.3-4.5-5.4,2.1-3.7,1.7-7.8.3-1.7.5-1.5.6.6.1,6.1,2.6,6.1,4.1,7.4,5.7.7-7.7-15.3-2.7-19.4.2-2.4-9.9-11.2-8.5-1M609,282.6c-234.2,8.1-128,65.2-229.7,110.9-48.7.9,37.6,2.9,19.2,1.6-4.4-.3-6.8-.7-5.4-.8,4.4,8.9,52.7-73.2,46.8-59.2-1.1,4.4-.8,3.2,1.1.8,29.4-35.9,7.4-30.4,82.5-38.4,55.4-2.1,81.4-15.2,109.5-10.4,1.1-4.5,3.8,6,2.8,4.7-3.8.6,2.2,9.1,3.5,7.3,1.5-.9-2.2,2.9-.7,2.7,1.4,0,2.6-3.4,1.3-3.8-2.3-12.7-4.5-17.8,20.4,33,3.6,11.7,15.3,18.7,7.6,21.6-3.1.7-2.8.8.9.5,4.9-.2,22.8-4.8,9.4-3.8-8.5,11.5-37.6-70.4-43.7-65.6-2.1,0-2.1-.1-.3-.8,5.9-2.3-12-2.7-25.4-.5M182.5,284.3c-3.2,1.2,1.1,9.3-.4,11.3-3.2-.8,1.7,12.9,2.6,5.2-.6-1.6,6-13.7,1.8-9.3-6.9,7,3.9-15.5-3.9-7.1M220.4,282.9c.3.5-.4.7-1.6.3-4.6-2.2,2.9,6.2,3.6,5.4,1.2-1.3,3.8,10,3,3.7-.5-6.7-3.8-13.1-5-9.6M166.8,283.7c-4,1-.8,31,3.3,30.5,7.3.7.8-11.5,2.3-15.2-1.4-3.9-.3-18.4-5.7-15.3M201.2,287.8c-2.2,4.6-1.6,19.2.7,19.2,1.8,2,3.3-28.5-.7-19.3M234.7,293c.3,4.1.9,8.2,1.4,9,1.8,3.5-2.2-25.3-1.4-9M301,288.9c0,3.1,10.3,49.4,11.8,53.3,1.3,3.2,3.1,3.7,31.4,7.9,26,3.9,26.5,3.9,31-.8,18.9-37.2,53-33.5-45.2-56-30.8-7.8-29-7.5-29-4.3M306.7,289.7c-2.7,2.1,3,3.2,1.9,1.4-.3-.5.2-1.1,1.2-1.4,3.2-.9-3-.7-3.1,0M189.1,295.8c-1.7,3.5-.8,5.2-3.1,9.4-6.3,10.4,9.9,5.1,6.5-2.2-1.6-4,0-11.2-3.3-7.2M224.6,301.8c-.5,3.9-2.5,1.3-2.5,3.8.3,3,0,4.7-.7,4-2.5-.5-5.7,5.3-3.3,0-.9,2.9-12,6.8-7.4,7.8,2.4.8-.5,7.2,3.4,4.1,1.1-1.3,1-1.5-.5-.9-9.2,2.8,20.2-12.3,12.5-11.7-2.7,0-.8-.5-.4-1-1.9-.2,1.9-12.8-1-6.2M690.3,306.3c-11.4,3.4,4.2,17.7,6.7,23.6,3.1-3.5.2-30.3-6.7-23.7M236.2,311.5c.9,21.3,1.8,9.6,2.9,4.4,2.1,2.1-4-12.7-2.7-4.5M192.8,311.1c-4.6,3,2.8,5.7,4.7,2.1,6.5-8.3,5.4,4.4,11-.2,11.4-2.7-12.3-7-15.7-1.8M184.1,317.5c2,8.6-.4,10-2.1.8,1.3-5.5-5.9.5-6-3.1-1.2-4.2-1,4.3,1.1,3.1,4,7.1,6.8,14.4,12.5,3.6,2.6-2.1,2.7-5.1.2-5.1-4.3,0,4.2,1.4-.3,2.5-1.1.4-2.3.9-2.6,1.1-.9.5.2-4.9-.9-4.1-1.7,0-1.3-5.3-1.8,1M447,323.1c-20.6,32.4,22.4-30.6,0,0M165.1,318c2.4,16.5,1.9-6.9,0,0M197.6,317.1c-19,11.1,2.2,15.8,6.9,7.6-4.5-6.5,4.4-6.4,2.6-7.7-1.7-1.1-10.1-1.1-9.4,0M210.1,324.9c-1,3-1.4,9.6-5.7,12.5-3.6.4,3.9,15.3,5,7.3,1.7-14,21.2-17.4.8-19.8M237,333.1c2.6,6.4-10.8,47.2-5,34.5,5.4-7.6,8-51.8,4.9-34.5M144.5,330.7c3.7,3.4,13.1,8.5,14.1,10,1.3-4.2-14.7-10.1-14.2-10M188,330.8c13.9,1.4,7.8-2.5.1,0M190.5,333c-1.8.7-1.6.9,1,1.2,3,.4,2.9.4-2,2.8-8.4,4.1-18.7,13-15.1,13,5.2-1.7,41.5-23.3,16.1-17M221,333.8c.7,5-9.4,30.8-8.1,37.6,8.3,4.9,9.5-44.2,8.1-37.6M181.2,333.9c-3.3,6.3,5.3,3.4,5.3,0-2.9-3.1-.9,1.8-2.3,2.1-1.5.1-1.2-3.4-3-2.2M214.4,335.6c-4.7,7.1-7.2,23.7-4,26.4,2.4,7.6,12.5-40.7,3.9-26.3M650,334c0,1.3,4,1.3,4,0,0-1.3-4-1.3-4,0M232.8,337.5c-1.3,8.9-8.5,38.7-10.5,34.8-.6-1.8-3.3-.4-3.3,1.8,10.4,11.6,17.9-37.8,13.9-36.7M198.2,338.9c-2.3,1.8-6.2,7-6.2,8.4.4,3.6,15.5-14,6.2-8.5M197.7,345.9c-5.7,6.4.9,5.1,3.5,8.6,11.8,8.4,4.1-19-3.5-8.6M253.7,350c.3,4.1.7,7.7.9,7.9,1.5,2.3-1.8-23.4-.9-7.9M188.1,348.4c-2.3,2.5-2.3,2.6-.6,5.2,3.6,7.6,5.3-9.9.6-5.2M439.5,348.4c-11.4,7.4-18.3,23.8-23.3,36.1,6.1-5.6,23.4-34.2,29.3-34.5,4.8-2-2.9-3.6-6-1.6M183.5,356.3c.8,3.7,1.2,4.4,2.1,3.5,1.8-2.4-3.8-11.5-2.1-3.5M224.3,360.7c-2.5,10-1.1,8.8,1.3,1.8,2-3.9,1.6-15.1-1.3-1.8M194.3,356.3c-.8,1.9,4.5,4.7,1.7,4.7-1.3,0-1.3.2,0,1.3,2.9,1.1-.9,11.8,4,7.7,6.2.6-5.5-21.1-5.8-13.7M641.5,357c-6.1,1.5,4.2.6,5,0,6.1-1.5-4.2-.6-5,0M616.5,361c-6.1,1.4,3.8.7,4,0,2.5-1.1.2-1.1-4,0M254.9,364.3c-.5.8.7,29.4,1,9.6.2-12.3-.2-16.2-1-9.5M585.5,366c-4.2,1.1,0,1.1,5,0,7.6-1.5-4.2-.7-5,0M559.5,370c-8.4,2.2,12.5-.3,6.5-.8-2.3,0-4.8.3-6.5.8M534.5,374c-6.1,1.4,3.8.7,4,0,2.5-1.1.2-1.1-4,0M503.5,379c-4.2,1.1,0,1.1,5,0,7.7-1.5-4.3-.7-5,0M475.5,383.5c-14.6,3,10.6-.1,9-1.3-1.6,0-5.7.6-9,1.3M279.9,383.8c-5.6,14.1,71.9,6.5,76.1,8.3-6.2-1-59.1-8.6-76.1-8.2M450.5,387.5c-9.4,2.1,6.4,0,6-.6,2.1-1.9-2.6.2-6,.6M421.5,392c-4.7,1.5,5.3.6,6,0,4.7-1.5-5.3-.6-6,0M358.8,393.2c2.1,1.8,10-1.6,2.3-1.1-3.9,0-4.2,0-2.2,1.1M248.5,399.9c-11.9,6.6,15.2-6.2,0,.1M230.5,404c.8,1-21.5.7-13,2,2.9,2.5,28.5-4.7,13-2.1"/>
  <path class="cls-1" d="M244.5,9.5c-78.1,4.2-79.3,9.8-132.1,25-15-4.8-14.2-5.3-47.4,30.4-9.2,9.8-9.6,10.2-13.7,10.2-13,5.9-16.8,49-31.9,58.1-5.9,4.8-10.8,26.1-4.3,10.6-.4-2.5,3.6-8.8,5.7-8.7,1.5,0,1.5.1,0,1.1-3.7,2.4,0,5.8,1.3,8.4,22.5,34.8,32.7,109.6,31,139.4,5.2,1,8.9-19.5,10.4-15.6-2.3,4.9,10-3.9,7.7-7.1,3.7-4.1,9.7-4.4,13.5-8.3,4.9-12.1-7.1-43-14.6-52-2.3,4.4-5.5-3.2-3.9-4.2,2.6-.1-2.4-3.9-.2-3.8,3.2-2.7-6.7-2.9-5.9-6.8-8.6-8.3,9.5-16.4,13.9-13.7,2.9,1.5,12.4,5.8,12.1.9,1.2-1.5-3.3-6.4-5.8-6.4-3.9-3.3,1.4-15.6.4-22-9.6-18.5,48.8,11.7,48.9,12,11.3,4.4,32.1,19.8,44.2,14.5,7.6-7.4,23.3,10.8,13.6,6.2-12.6.5,46.3,34.2,47.2,51.8,3.9,8.6,5.1,6.8,5.9,7-.4,1.9,3.6,6.3,5.7,6.3,3.9,0-1.6,2.9,4.2,1.8,4.4-1.6,5.2,3.3,8,4.2,1.7,0-6.1-7.1-4.4-7,17.3,8.7,22.8,30,26.8,49.1,6.4,18.9,10.1,54.9,19.7,74,5.1,2.9,1.8-5.1,7.2-2.1,1.4,3.5-4.3,4.4,4.2,6.1,1.6,4.3,77.6,8.1,39.9-1-.3-1-2.8-1.6-2,0,1.9,4.2-6.8-5.2-4.2-.7,1.3,2.8-2,.2-2.3,1.7-1.4,3-6.6-4.7-10-3.8-4.6-7.6-17.8-3.1-20.6-12.5-.8-3.8-2.4-1.9-2.4,3,0,4.9-.5,3.2-1.1,3.2s-.6.8.1,2.2c2,4-1.6-.6-1.5-1.9-5.5-3-12.8-27-3.9-29.4,4,0,1.3-1.3,1.4-3.2-.1-6,6,20.8,4.6,7.8-20.9-78.4.8-40.1,69.8-29.3,19.4,5.6,17.8,4.4,20.5,3.3,3.4,1.4,10.9,2.4,11,.7,0,18.2-26.4,52.3-22.1,65.4,9.7,1.1,14.4-16.6,20.6-24.5,11.9-17.9,22.7-42.4,38.8-54.1,14.4-10.2-15.2-41.2-28.8-56-4.5-.4.4-7.9-3.4-9.7-4.2-6.2,3.1-5.5,6.2-4.9,27-3.6,22.4-2.5,47.3-4.2,5.6.2,5.3-2.6,11.1-.4,2,1-1.6-4.2,1.2-1.8,8.3,3,29.4-2.4,37.9-1.2,6.6-5.4,47.7,3,32.8-10.5-11.1-15,5.6,8,10.3,5.6,11.8,1.3-6.1-10.8,4.7-3.2,3.9,5.1,3-.2,5.8,2.1,1.4,1.1,1.5,1,1-1-1.4-4.8,7.7,5.1,6.3-1.1-5.2-11.7,12.8,7.5,4.7-3.1-8-9-2.2,1.6-11.2-6.9-1,.6,6.2,6,5.1,6.6-.6,1.2-7.3-6.3-7.6-5.1,0,.5,1.1,2.1,2.5,3.4,2.8,2.7,3.5,5.2.7,2.7-2.3-2.1-3.3-2.1-2.5,0,.8,2.2-19.4-19.8-18.8-16.5-.6,2.2-11.5-11.3-6.6-3.1,1,1.3,21,22.8,13.5,16-3.5-3.1-3.5-2,0,2.7,4.7,6.3-10.6-8.7-4.1-5.1,1.2.5,1.5.3.8-.8-6.1-8.6-13.1-11.3-3.9-.9-17.5-16.4,2.6,6.1,5.4,9.2.6,1.6-23.5-24-18.3-15,.4.7-.9-.6-3-2.8-3.9-3-11.9-14.1-12-14.2-3.2.2-3.3,0,.3,4,6.2,10.3-7.4-1.9-9.5-3.1-.9,1,6.5,6.2,3.5,6.8-1.3.9-1.1,1.1,1.5,1.4,1.7-1.5,12.7,12.9,5.2,5.1-4.7-5.2-5.8-4.1-1.2,1.2,11.7,14-10.1-9.2-11-8.5-1.1.2,14.9,16.5,14.1,16.6-.3.7-10.5-10.9-11.2-9.6,1.7,5.3,12.6,14.5-.3,2.5-12.8-12-2.8.9-6.6-3-4.6-3-4-3.7-2.8-.1-.9,1.2-4.3-3.2-2.7-3.5,2.3-.7-4.2-4.9-2.1-2.2,3.7,5.7-7-5.2-2.9,1.7.9,1.1,1,1.5,0,1-7.2-4,14.8,18.5,4.1,9.2-2.2-2.1-2.3-2.1-2.4-.2.8,4.2-5.7-5.7-5.6-3.4,1.1,3-4.3,1.2-.3,4.3,4.5,3.7-2.2-7.8,4,.8,3.8,5.5-2.9-2.4-1.4,2.5.5,1.5.3,1.4-1.1-.2-2.3-3.4-2.3,1.1-4.5.1-1.7-1.1-1.3-2.6.6-1.9,3,1.2-5.1-8.7-8.9-10.8-6.3-3.5,9.5,11.6-1.8,1.3-17-16.1,2.1,4.6.5,4.5-6.9-6.4-2.1,1.2-4.9-.7-3.1-3.2-.9-2.2.5-2.7.8-.3-20-22.6-14.4-14.2,7.4,13.9-6.6-.3,2.8,11.1,4.1,4.4,7,9.5,1.4,3.1-8.6-9.4-12.3-12.2-13.1-10.3.7-1.9-10.3-14.8-6-7.8,3.1,3.5,3.9,5.5,1.2,3-9.3-7.6,3.4,5.1,2.6,5.8-3.4-2.3-7.5-6.4-11.1-6.1-2.1-1.7-.8.5,3,4.8,3.2,4.1.6,3.3-2.4-.6-15.9-15.8,13.1,16.6-5.4-1.6-6.1-6.1-9.5-8.6-4.9-3.5,14.3,17-5.1-4-11.3-8.6-.6.5,11.5,12.9,5.1,8.4-3.2-2.7,2.9,6.8,4.7,7.5,2.6,1.9,11,11.6,2,3.2-10.5-10.6-1.5,2.6-8.6-4.6-6.1-5.3,2,5.9-10.8-7.6-7.8-8.1-8.3-6.4-3-1.5,3,2.9,4.8,5.1,3.1,7.2,1.5,3-3.2-1.5-3.5-.4-.3,1.3,3.6,3.8,0,2.6-4-1.1,3.3,3.5,1.5,3.7-.6,0-2.1-.9-3.4-2-2.8-1.4,1.9-6-.5-7.4-3-2.2-4.7-.9-2.8,2,1.4,2.2,1.4,2.4,0,1.8-3.6.7-3.3-16.7-7.7-14.6.5,1.6,4,5.3.2,2.8-7.7-6.1,4.3,6.1,3.8,6.8,1.2,3.6-10-10.2-11.1-8.9.4,1.4,9.7,9.9,9.6,11.4-.2.6-19.2-18.2-10.4-7.2,4.8,4.9-5.1-1.5,1.2,5.2,1.5,1.7,1.3,1.8-.5,0-1.5-3.2-12.4-19.4-6.5-6.9-1.7-.7-11.4-9.6-3.3-5.8-6.3-7.3-2.4,5.6,2,8-.5,1-11.7-9.7-6.5-3.3,3.6,6-5.7-3.4-3.8-4.2,1-.5.2-.3-.4,0-10.2-6.7-1.1,2.9-7.5-2.1-1.8-1.6-2.5-2.1-1.6-.9,6.6,10.5-12.7-10.5-.1,4.4,2.8,3,4.8,4.7,4.4,3.8-2.2-4.5,5.2,1.8,2,1.3-1.5,6-26-23.8-14.6-9.5,12.5,13.4-.1,1.5-4.4-1.4-.5.5,1.4,2.8,7.8,9.7,5.9,6.3,1.8,3.2-4.9-3.8-8.9-8.9-9-8.8-8.3-2.7,5.5,5.2-1.6-6.9,5.9,3,7,8.3-5.9-4.2-2.3.9.7.7,1.2,1.7,1.2,2.2-.5.6-19.9-19.7-10-7.5,7.9,9.7-2.8-1.5-5.3-3,9.4,12.2,0,2.9,3.8,10.9-5.6-2.5.7-4.3-4.4-8.1-2.3-2.3-2.6-2.3-1.1,0,3.9,10.7-15.2-9.3-11-3.4,3.7,5.1-5.9-4.2-4.4-1.2,1.5,3.1-3.4-.9-2,2.1,1.2,5.3-3.9-2.7-4.6-1.7.9,1.8,4,6.2-.5,2-1.8-2.3-5.8-4.5-2.9-.6,0,2.6-10.1-7.2,1.6,6.3,9.5,10.5-9.4-8.4-8.7-6.7.9,1.8-2.5.9-2.8,2.4-.8,2-3.3-3.1-4.7-1.7-.8.5-1,.3-.5-.3.8-4-3.6-.2-1.2,2.5,2.5,3-.7,1.1-3.8-2.3-3.6-4-4.6-3.2-1.3,1,4.3,7.3-5-5.2-6.8-5.3,0,1.1,4.7,9-.9,2.6-4.3-6.5-10.3,2.1-4.3-.7.2-1.8,4.8,3.6,1.6,1.9-.9-.3-1.9,0-2.1.5-1.1,1.8-9-8.6-5.7-2.2,1,1.9.9,2-1.1,1.4-3.7-.7,4.7,4.7-2,4.4-8.5,2-5.6-4.5-6.9-3.9-1.8,2.9-1-2-1.5-3-13.1,8.7-79.2-130.4-84.8-126.2-12.8-16.7,52.1-8.7,79.2-14.8,47.2-3.4,105.7,2,121.7,1,9.6,0,11,.7,2,1.1-6.3.3-6.4,1.3-.2,2.4,9.2,1.8,27.9,1,32.3,0,6.2-.4.9-1.7-5.5-1.6,16.8-1.7,79.3,34.2,125.7,69.6,5.2,4.4,17.5,11.5,13.1,11.6-3.9-1.6-.2,5.3-.7,3.2-.4-4.2,2.5,3.1,3.6,2.1.6-.4.8-.2.5.3-2.2,3.5,10.1,11.6,17.7,11.7,8.4,0,9.9-1.4,4.1-4.3-10.5-5.4-25.3-16.4-23.5-17.5,9.2-6.6,32.8,7.9,36,13.9-8.9-24.4-33-5.1-56.1-26.6C422-4.5,362.4,7.5,244.4,9.8M345.3,12.7c1.5.2,3.8.2,5,0,3.2-.5-9-.5-5,0M304,24c-4.7,1,18.6,1,26.5,0,9.1-1.2-27-.8-26.5,0M267,25.2c-20.6,3.3-54.5-.9-71.5,7.8,21.7-2.1,154.4-11.3,71.3-7.7M101.2,34.6c1.8.6,3.4,3.4,1.9,3.4-12.4,19.6,32.9-3.9-1.9-3.4M139,35.5c-34.1,11.4-98.7,58.6-33.7,76.3.7-9.4,35.5-17,37.7-11-6.5-.6,2.3,4.2-4.3,3.2-1.9,4.1-.2,4.8-11.8,5.2-6.2.4-12.9,2.9-16.3,4.4,5,5.7-6.7,2.5-2.3-1.1,3.2-3.1-1.4-1-2.9,1.6-2,5.6-18.5-4.6-17.6,1.2-2.3,4.7-4.7,1.5,9,7.1,17.7,5.7,8.7,7.1,31.1,10,10.4,3.9,28.1-5.8,15.3-4.6-6.1,1-20.2-2.1-16.4-4.2,2.3.5,2.4.4.7-.9-3.3-3.6,1.8-10.1,4.9-5.7,14.7,9.2,23.7-20.4,28.5,14,2.8-6.6,42.8,12.8,49.8,14.7,24.6,15.4-2.8-22.9-3.4-29.1-20.6-33.4-30.1-94.3-68.4-81M465.5,50.6c13.8,9.1-4.2-6.3,0,0M489,66.9c14.4,10.6-3-4.3,0,.1M501,76c14.6,10.7-1-3.5-4.3-4-1.1,0,1.4,1.8,4.3,4M505,72.9c-1.4-.1,12.8,10.7,10.5,6.2-2.4-4.7-10.6-9.5-10.6-6.2M68.9,76.8c-4,2.2-27.3,17.3-17.1,16.8,2.9-3.1,35.2-29.8,17.1-16.8M48.1,76.8c-4.6,3.3,6.5-1.1,3.5,3.6-.4,1.8-.3,2.5.4,2.1,2.7-4.6,6-7.7-3.8-5.8M45.3,82.5c-1.5,2.7-4.5,14.4-4.1,15.8,2.2-1.1,8.6-19.2,4-15.8M509,81.7c0,1.2,8,6.5,8,5.4,0-1.6-9.2-7.4-8-5.3M215,85.3c0,1.3,9.2,18.8,9.7,18.3.3-2.4-10.5-21.1-9.7-18.3M527,95.4c.2.9,17.1,13.3,17.6,13.8,8.3,2-22.2-17.7-17.7-13.8M157.7,107.2c3.4,1.2,7.2,24.8,5.9,12,1.6-6.7-10.9-19.8-5.8-12M575.8,112.7c0,8.4,26.2,10.3,28.2,16.7,0,1.1,4.4,3.5,12.5,6.6,2,.7,2.2.4.5-.9-1.7-1.3-1.1-1.4,1.8-.2,11.2,7.8,50,20.9,31.2,45.5,13.1-34.9,25.3,27.5,37.9,51.8,5.1,20.8,13.9,95.2,5.5,105.5-6.9,3.9-9.7-20.8-11.7-26,2.1-2,3.1,1.5,4.5-7.8.6-6.4-8.5,2.2-10.5-1.1-5.1-4.7-4.6,7.5.9,18.1,2.3,1.1,3.5,28.9,6,28.7,3.2.4-4.5,2.4-1.7,2.7,28.2-3.6,12.6-44.7,14.4-73.4,1.8-81.8-49-142.6-119.8-165.8M236,124.1c-.2,2.9,5.4,5.8,1.5.3-1.2-1.6-1.5-1.7-1.5-.3M366.8,127.7c1.8.2,4.7.2,6.5,0,4.4-.5-10.8-.5-6.4,0M146,134.1c0,2.1,2.3,9.3,3.3,10.4,1-1.4,1.2-15.6-3.4-10.4M163.5,135.8c.4,2.5,4.4,19.4,4.9,8-.4-2.1,0-2.2,1.4-.2,3,8.9,10.1,7.1,15,8.6,2.5,2.4,2.5-.6-.2-1.3-2.6-.4-4.4-5.6-2.8-5.5,2.5-.1,0-2.9,6.4-1.9,2.9.2,4.5.2,3.5-.1-1-1.4-17.9-8.3-21.8-8.4-2.2,0-1,.6-1,1.2.6,12.4-5.4-7.9-5.5-.4M149.3,148.1c1.2,2,1.9,2.3,7.7,3.4,10.7,2.8-11.7-8-7.7-3.4M326.9,156.3c11.9,11.1-5.4-7.9,0,0M317,155.8c-1.2-.4,9.2,9.8,7.5,7.4-2.2-2.6-1.4-4.2,1.1-2.1,4,3.1-5.2-8.5-2.9-2.4.3,2.6-6.2-7-5.6-3M390.6,156.3c1.8.7,2.8,9.4,2.8,5.1-.5-2.4,4.4,1-.9-4.4-1.9-1.7-2.4-1.9-1.9-.7M380,156.4c7.1,10.3,8.3,4.7,0,0M137,157.9c6,3.4,19.8,8.2,26.3,8.9-3.4-1.7-23.9-10.7-26.1-8.9M315,158.1c-2,3.1-9.9-3.4-4.3,3.3,5.6,6.8-2.4-6.1,4.2,1,6.9,5.4.3-.7.9-2.4,7.5,5.9-.5-6.4-.9-1.9M436.5,160.8c.5,0,6,7,6.5,6.8.5-1.3-8.1-10.2-6.5-6.7M226.8,165.3c5.4,5.2,3.3,2.2,6,2.1,5.3,1.9,1.1-5.8,1.6-2.2.7,2.1-.9,2.4-1.6.4,0-1.3-10.2-3.7-5.9-.3M410,164.7c14.6,20,14.3,6.3,0-.1M440.1,168.7c1.9,2.3,3.6,4,3.9,3.7,1.2,0-9.3-10.3-3.9-3.7M18,168.9c2.3,10.4,8.5-5.3-.1,0M455.6,173.7c12.7,11.2-9.9-12.3-.1,0M6.5,181.3c-1,8.4,1.6,52.3,1.1,12,0-21-.2-25.7-1.2-12M15.8,174.4c-.7,3.4,1,10.2,4.5,17.6,6.9,15.5-4.7-23.2-4.5-17.6M421,172.6c0,1.2,4.8,6.3,5.3,5.7.8-.6-4.6-8.5-5.3-5.7M467,173.2c-.5,1,5.6,5.7,3.1,1.9-1.4-2.6-3.1-3.6-3.1-1.9M475,173.9c-7.8.8,2.1,5.8,3.5,6.9.5-.9-3.9-4.2-3.5-5.2.5-1.5,10.7,9.7,6,6.9-1.1-.7-1.4.8-.4,1.8,6,2.2-3.4-10,3.5-4.7,2,1.7,2,1.6-.2-1.4-1.9-2.6-2.5-3-2.8-1.7.4,3.5-5.7-4.5-6.1-2.6M430.2,176.8c.4.8,12.6,12.4,6.3,5.2-2.4-3.2-11.2-12.4-6.4-5.2M461.9,176.9c3.9,5.5,5.4.6-.2-2.1-1.8-1-1.8-.8.2,2.1M498.1,175.7c-1.7,1.6-.5,3.4.9,1.3,1.6-2.8.3,1.9,1.5.8.6-1.1-.7-4.7-2.4-2.1M520.5,178c9.4,10.5,4.8,1.7-1.5-2.5-1.3-1.1-.7,0,1.5,2.5M445,175.6c3.5,2,3.4,10.8,7.3,11.3,1.7,0,0-1.1-1.2-2.4-1-.7-3.1-12-6.1-9M488.6,176.6c-.6,2.3-3.8-.8-1.3,2.2,5.5,6.2-1.3-4.6,4.9.9,4.1,4.5-4.3-9.1-3.7-3.2M529.5,177.1c.1,3.9,8.5,12.9,11.1,13.6,1.4,0-7.6-9-5.4-8.4,1,.4,1.8.2,1.8-.4-1.3-1.3-7.1-.9-7-4.1,0-1.6.7-.4,1.5.3,5.4,3-.8-3.6-2.1-.9M509,177.7c0,1.5,4,5.6,4.7,4.9,1.2-.5-4.5-5.9-4.7-4.9M30.7,186c.4,8-4.6,15.7,1.7,20.9,6.6,11.8,0-29.8-1.7-20.9M415.3,180.2c1.4,2.1-3.2,1.8-1.7,3,6,2.6,1.6-7,1.7-3.1M467,179.6c0,1,8.1,8.6,8.6,8.1.5-.3-8-11.2-8.7-8.1M41.8,182.2c-.8,13.7,10.6,35.2,15.2,47.7,7.4-7.4-12.4-48.2-15.4-47.7M451.9,182.2c-1.8,3.6,5.9,2.5,8.1,5.9,6.7,5.8-2.7-4.1-2.9-5.4-1.1-2.5,12.3,11.2,9.3,6.9-4.8-7-10.6-9.9-14.4-7.3M440,182.1c-.5,0,7.7,9.3,8,8.3.6-.4-7.6-8.9-8-8.3M491.6,184.2c1.3,2.1-4.1-1.4-1.1,1.8,2.1,2.3,4.4,2.8,2.5.5-1.5-1.8,0-2,2-.2,1.9.9-5.9-6.4-3.5-2.1M557.8,186.1c2.7,3.5,10.6,11.3,5,3.2-3.7-5,1.4,0,2.2-1,0-1.9-3-3.9-3.9-2.5-.9,2.4-9.8-6.5-3.4.2M655.1,188.8c-3.8,9.4-19,25.5-12.5,35,.9,1.1,3.1,11.6,2.9,4.5-1.9-5,32-60.9,9.5-39.4M486,185.5c7.3,9.9,10,7.5,1,0-1.6-1.3-1.9-1.3-1,0M512.5,186.3c10.3,10.4-2.2-7.2-.1,0M469,185.3c0,.2,2.1,2.6,4.6,5.2,7.7,8.5-5.5-9.5-4.5-5.3M526,185.8c.7,6.1,7-1.6,4,0,.4,1.9-4-1.4-4,0M545,188.5c9.6,7.3-6.5-8.5-.1,0M571,187.8c1.7,3-.9,1.4-1,3.2,0,1.5,1.7,1.2,2.3-.4,1.1-.7-2.7-6.1-1.3-2.8M532.5,189c1.6,3.6-4-.9-1.2,2.7,2.2,1.6.1,4.2,2,3.7,1.8-1,4.5,4.7,6,4.6,1.5-.6-11.4-11.7-3.1-6.9,4.5,3.2-6.9-11.3-3.7-4.1M246.5,188.9c-4.4,1.1-25.6,6.7-10.3,6.8,4.7-3.3,9.8-2.6,4.6,0-3.2,1.7,1,.6-.3,3.6-1,3.9,11.6,26.1,14.7,26.1s1.2,1.2,1.4,2.6c-.5,5,7.6,14.8,4.2,6.9-2.5-2.5,2.6,1.9,3.4.4,1.5-.9-.7,1.7,2,1.7,5.8,1.1,0,4.6,1.4,1.8.4-.6.1-1-.4-1-1.4,0-1.4,1.7,0,2.5,1.5.5-.7,4.3.9,4.5,1.7,0-1.3-3.1,1.4-1.1,2.9,1.3-1.1,3.7.6,4.2,3-4.1,5.7,1.9,4.9-1.4-1.2-3,3.5,2.5,4,1.2-1.5-1.1-3.2-6.4,1.5-1.4,2.7,2.8-4.5-6.4-1.7-4.6,1.2,1,1.9-5.9,1.7-6.6-13.4-13.3-10.2-13.9-29.5-33.7-17.7-12.3-3.9-10,16.6-7.8,43.8,14.3,114.9,22.6,134.5,51.2,0,.5,9.4,14,10.7,15.2-5.5-13.3,6.4,5.4,6.3,7.8-.6,6.3-7.8-12.8-4.9-3,3.2,7-9.8,15.9-9,7.4-.9-30.2-50.8-30.8-81.1-43.1-9.3-1.4-62-22.7-48-6.1,8.2,37.3,64.3,48.9,118,62,90.4,16.7,14.3-68-53.1-74.5-24.3-4.3-76.1-24.7-94.5-21.6M498,191c9.4,9.5-4.4-9.8.1,0M502,188.6c5.2,8.2,16.9,14.9,0,.1M560,191.9c6,9.2,17.6,17.7,5.1,3.6.1-1.4,6.8,6.5,6,3,0-1.4.4-1.5,1.2-1,2,1.2-1.9-2.8-.5-2.6-1.7-3.8-6.9,1.9-10-2.8-1.9-1.7-2.5-1.8-1.6-.2M515,198.6c4.1,4.5,7.9,8.2,8.3,8.2,5.1,3.1-21.4-22.5-8.3-8.3M554,191.5c0,.6,2.5,3.5,5.5,6.5,14.5,14-4-6.9-5.5-6.5M586.2,192.1c2.2,1.1,2.4,6.7,5.2,3.4.4-2.1-4.7.9-1.1-3.5,1.1-1.2,1-1.2-.4-.2-1.3,2-6-2.8-3.5.3M473.7,198.5c2.8,3.3,6.1,6.9,7.4,8,7.4,6.8-20-22.8-7.4-7.9M473,193.6c-.7.4,9.7,10.8,10,10.2.7,0-9.7-11.3-10-10.2M481,193.7c-.2.8,5.7,5.9,4.6,7.1-2.8-.8-8.7-7.3-2,.4,5.1,5.8.9-3.6,5.3,1.7,6,5.7-7.8-10.7-7.8-9.2M518,197.3c2.5,2.6,4.6,4.8,4.8,4.8,3.6,1.9-12.6-12.6-4.8-4.7M576.4,195.4c-.8,3.6,6.6,6.7,2.1,2.6-3-4.7,1.8.9,3.3-1.7,1.2-1.3,1.1-1.4-.8-.8-2.5,1.5-3.7-4.9-4.7-.2M173.1,196.5c-5.2,2.3-12.1,2.8-16.3,4.7-.2,2-5.7-5.1-5.8-3.3.3,2.1-4.6-.9-3.4,1.5.4,3.4-9.5,4.7-8.1,7.3.9,1.7-3.4.3-3.4,4,0,1.8.6,1.3,1.3,1,3.1.2,0,4.8-.3,6.2-2.1.4,3.3,5.8,1.9,6.1-.9.3.2,13.2,2,11.3,0-4.1,11.6,2,12.5,6.5.7,3.4.9,2.7,3-7.4,18.6-117.6,127.4,72.1,93.5,167.8-6.6,3.2-5.9,3.7,1,.7,5.9-2.5,6-2.8,7.1-15.8-2-27.9,17.3,11.6,21.8-.9-4.8-5.9,23.5.4,16.7-2.8-36.2,4.8-23.3-47.3-35.5-67.2-11.4-44.1-55.5-136.3-87.9-119.6M490.6,200.9c14.3,12.2-11.1-12.8,0,0M471.8,200.5c1,2.1,7.2,8.3,7.2,7.3.8-.6-7.7-8.8-7.2-7.2M584.1,202.7c4.3,4.6,6.3,6.3,6.9,5.7.8-1-15.6-16-6.9-5.7M507,201.7c-.4.4,4.6,5.8,5,5,.4,0-4.7-6.4-5-5M589,202.9c1.8,7,17.3,7.5,3.7.1-1.6,0-.3.7.7,1.5,4.7,5.9-4.1-1.9-4.4-1.6M12.5,214.7c-2.4,26.5,13.7-.6,5.9,1-2.8.3-2.8.2-1-1.2,7.1-6.1,8.7,5.1,9.5,2.9,1.4-3.5.4,2.4,2.9,2,2.3.1,8.9,15,5.6,4.8-3.7-7.4-13.8-13.8-15.7-17.1-2,.4.3-3.8-1.8-1.4-4.2,2.2-6.5-12.3-5.5,8.9M597,203.5c5.8,8.5,6.5,1.6,0-.1M8.3,224.5c0,3.3.2,4.5.4,2.7.5-2.6-.3-11.4-.4-2.7M19.1,223.9c-13,5.9,8.1,69,2.5,36-8.5-16.5-6-36.1,4.5-35.6,9.2-.3-4.8-4.6-7-.5M681.4,229.6c3.5,4.3-10.5,23.9-12.7,28.4,6.9-4.5,17.8-24.9,12.8-28.5M121.1,231.3c-1.3,3.5,1.1,12.2,3.8,13.2,8.2,2,1-23.6-3.8-13.2M178.6,232.1c-2.3,1.3-11.2,17-5.6,9.1,7.1-10.7,2,12.9,4.8,12.1,2.1.2,1.2-8.1,4.1-11.3,7.5-17.5-2.8,2.2-3.8,3.7-.5-3,6.8-20.4.4-13.8M9.3,236.5c0,3.3.2,4.5.4,2.7.5-2.6-.3-11.4-.4-2.7M646,235.4c0,1.9.3,3.7.8,3.9,1.5-.4-1-13-.8-3.9M201.8,234.7c11.3,9.1,20.1,29.8,27.1,42.5,6.8,2.6-22.8-53.4-27.1-42.4M281,240.5c1.7,2,1,4.7,2.3,3.9,3.1-.3-2.4-8.7-2.2-3.9M25.6,241.6c-6.3,3.1,4.9,27,6.4,15.4,0-7.4.5-3,1-3,3.9-5.4-5.6,3.3-6.4-3.8,0-2.6,6.1-14.2-1-8.7M199.3,246.3c2,12,8.9,3.2,1.1-2.4-1.6-1.3-1.7-1.1-1.1,2.4M568.1,250.3c2.9,4.3-5.3-3.3-1.9,1.5,3.5,4,2.8,4.5-1.2.8-6.1-7-1.9,3-7.3.6-1.5-1.5-3.1-1.2-1.2.9,4.8,7.1-9.1-7.8-4.5-.6,1.7,2.1,0,1.9-2.4-.2-2.5-2.2,4.5,6.4,3.4,6.8,2.9,11.3-5.3-6-7.9-1-1.2.8-1.2,1.1.2,2.5,2.7,2.8,1.4-2.5,4.8,1.4,3.7,3.2-.7,2,.8,4.9,2.4,2.8-8.2,1.5-4.2,3.9,3.8,4.3-2.6-1.7-3.6.4-5.2,5.9,15.1.1,8.1,4.8,5.5-5.5,11.4,2.3,4.3,2.2-27,2.1,34.9,7.3,28.2-1.7-3.5-3.4,1.4,3.9-2.2.6-2.6-2.9-4.2,4.3-4.2-2.7-.4-8.2-5.4,6.9-6.8-2.5.7-1.1-.8-1-2.5.1.1,1.1-6.6,8.8-6.8,4.6,1.6-4.4,5.8-2.3,5.5-8.5,2.2,6.3,4.9-4,4.7,2.6-.5,2.8,0,3.1,1.9,1.1,3.3-1.7-6.2-6.4-3.5-8.2,2.6-2.2-1.3-10.3,1.7-10.3,7.2,4.9-8.1-11.9-3.6-3.9M575,248.7c-.7,1.4-5.5.1-1.5,2.9,1.9.5.9,3.4,3,3.4,2-1.6,4.1-1.6,4,1.8-.9,2.3,1.3,4.4,2.9,2.9,1.6-.7-.4-4.5,1.4-3.2,1,.6,1.1.2.5-1.6-2.3-5.3,3.9,2.6,2.1-.9-3.4-6.9-2.8-.3-6.1-3.4-6.6-4.2,2.6,4.2,2.3,5-.2,1.2-8.5-8.5-8.7-6.9M214.1,255c12.4,22-7.8-19.7,0,0M590.6,250.5c1.9,4.3-3.1-2.7-2.6.8,0,2,2.2,3.4,2.8,1.8,0-2.2,5,2.4,5.2.8-.2-.3-7.5-6.7-5.5-3.4M188,254.1c0,2,3.9,9.4,4.5,8.7.6-.3-4.4-16.9-4.5-8.7M85,255.3c0,1.5,2.9,5.7,3,4.2.4-1.2-2.2-8.5-3-4.1M197.6,255.7c-6.7,12.1,7.5,20.5,18,33.3,7,12.4,6.4-.8,0-5.6-11.8-8.8-14.2-28.9-18.1-27.8M572.7,255.8c-3,.5,4.8,9.9.4,10.3-3.2-.2,1.2,1.7,1.5,3.5,3.9,5.9,1.5-2.1,7.8.5,6.5,1.5,3.7-1.9,2.7-4.9,0-.9.4-.7,1,.7,4.1,8.1,3.3-8.6-4.3-4.2-3.9.5-3.6-3.7-7.5-3.7,1.7-.3,4.1-2.4-1.8-1.9M203,256.5c6.1,19,10.3,12-.1,0M554.8,257.5c1.3,2.5,6.2,7.2,6.2,5.9,1.4.2-6.9-9-6.2-5.9M12.2,260c0,1.4.3,3.6.8,5,2.1,6.7-.7-10.9-.8-5M563.1,258.8c0,.9,5.9,5.6,5.9,4.8,0-.5-6.4-7.6-5.9-4.7M588.5,260.8c0,2.6,1.6,5.2,3.1,5.2,2.7.5-5.1-4.8-.8-3,8.1,5.2-3.3-8.6-2.3-2.1M166.1,264.4c-2.5,5.3,2.9,5.8,1.6-.6-.3-1.5-.8-1.3-1.6.6M683.8,266c.1,4-2.1,4.9-2.5,8.6.6.9,8.1-13.6,4.7-10.1-1.8-.4-2.4-3.4-2.2,1.5M77.8,267.9c-15.8,14.5.6,10.7,10.5,18.3,12.3,12.4,44.3,7.1,28.4,1.4-9-5.3-29-33.3-38.9-19.8M16,275.3c-.2,8.4,13.6,19.8,23.7,19.6,3.9,0,3.6-.3-.8-.8-11.3.5-17.8-10.2-22.9-18.7M174.8,279.4c-2.6,2,.4,22.6,3.3,22.6,3.9-1.4.6,14.6,5,9.6-5.4-7.8-.4-39-8.3-32.2M594.6,279.9c-4.8,2.8,8.3.9,9.9,1.1,6.7-1.3-7.8-2.8-9.9-1.1M71,282.9c-.4,1.4,2,4.3,1.4,1.7-1-2.7.2-1.9,22,13.3,23.7,16.5,23.6,16.5,23.6,15.8-.4.5-48.7-38-47-30.7M182.5,284.3c-1.8,5.2-.2,32.4,3.8,10.5,2-4,2.1-6.1,0-3.5-6.9,7,3.9-15.5-3.9-7.1M168,285.3c-8.3-2.1,1.5,27,0,27.7,9.6,13.5,2.8-38.5,0-27.8M189.1,295.8c-1.7,3.5-.8,5.2-3.1,9.4-6.3,10.4,9.9,5.1,6.5-2.2-1.6-4,0-11.2-3.3-7.2M201.6,295.1c-4.5,18.4,7.3,11.5,0,0M211.7,294.7c-2.8,4.5,2,13.5,4.5,11.5,1,.6-3.1-14.8-4.7-11.5M117,306.5c-.5.2,7.5,4.9,4.5,1.6-1.7-1.9-4.6-2.9-4.6-1.7M222.1,308.8c-.9,3.6-16.4,5.8-11.5,8.6-.2,5.9,19.2-7.6,15.3-8.4-2.4,0-.8-.5-.4-1,.5-2-2.9-.7-3.4.8M119.3,314.7c-1.3-.3,15.6,11.6,14.7,10.1-2.3-2.2-15.4-11.3-14.7-10.1M392.8,321.8c-12,26.7-21.3,31.9-33.9,31.3,19.6,15.9,48.5-60.8,33.8-31.2M165.1,318c2.4,16.5,1.9-6.9,0,0M196.8,318c-20.1,12,5.9,13.5,7.5,6.7-1.9-3.1-1.1-6.7,1.5-6.7,5.9-.9-5.8-3.2-9.1,0M149,323c4.1.5,10.9,5.3,9.8,3.5.8-3.1-20.4-8.2-9.8-3.7M136,326.4c-.5.2,8.9,6.9,9,6.2.5-.2-8.9-6.9-9-6.2M190.5,333c-1.8.7-1.6.9,1,1.2,3,.4,2.9.4-2,2.8-8.4,4.1-18.7,13-15.1,13,5.2-1.7,41.5-23.3,16.1-17M221,333.8c.7,5-9.4,30.8-8.1,37.6,8.3,4.9,9.5-44.2,8.1-37.6M146,333.4c-.5.2,8.9,6.9,9,6.2.5-.2-8.9-6.9-9-6.2M181.2,333.9c-3.3,6.3,5.3,3.4,5.3,0-2.9-3.1-.9,1.8-2.3,2.1-1.5.1-1.2-3.4-3-2.2M232.8,337.5c-1.3,8.9-8.5,38.7-10.5,34.8-.6-1.8-3.3-.4-3.3,1.8,10.4,11.6,17.9-37.8,13.9-36.7M211.5,342.5c-2.5,5.5-3.2,17.7-1.1,19.4,1.3,1.1,1.7.6,3-3.5,3.5-12.1,4.6-23,1.8-18.4-1.6,2.1-1.4-2.7-3.6,2.6M158.5,342.4c2,.9,6,7.6,6.6,5.3,1.6-.7-11.7-9.8-6.6-5.3M197.7,345.9c-5.7,6.4.9,5.1,3.5,8.6,11.8,8.4,4.1-19-3.5-8.6M188.1,348.4c-2.3,2.5-2.3,2.6-.6,5.2,3.6,7.6,5.3-9.9.6-5.2M319.5,346.9c12.2,4,5.3-2.5,0,.1M165.2,350.5c-.2-.2,2.1,8,2.7,6.5.3-.5-2-7-2.7-6.5M183.5,356.3c.8,3.7,1.2,4.4,2.1,3.5,1.8-2.4-3.8-11.5-2.1-3.5M224.3,360.7c-2.5,10-1.1,8.8,1.3,1.8,2-3.9,1.6-15.1-1.3-1.8M169.6,364c4.5,16.6,27.5,43,37.5,43s-1.1-1.2-4.1-2.8c-12.3-4.4-26.9-27.2-33.5-40.2M317,387c14.1,1.9,20.7,2.4,19.8,1.4,3.4-.7-47.9-5.3-19.8-1.4M286,392.1c4.4.8,66.8,1.3,65.9.6,4.7-.3-70.8-1.7-65.9-.6M356.5,394.1c5.1,1,9.2,1,5,0-1.5-.6-12.5-1.5-5,0M384.3,396.7c4.3.5,21.1-.3,5.2-.4-6.1,0-8.4.2-5.2.4M231,406.5c-11.8,2-13.6,3.2.4,1.1,14.5-2.3,11-3.4-.4-1.1M211.8,407.7c1.6.5,8.6-.3,2.3-.4-2.4,0-3.5.2-2.2.4"/>
  <path class="cls-1" d="M244.7,9.2c-78.1,4.2-79.3,9.8-132.1,25-15-4.8-14.2-5.3-47.4,30.4-9.2,9.8-9.6,10.2-13.7,10.2-13,5.9-16.8,49-31.9,58.1-5.9,4.8-10.8,26.1-4.3,10.6-.4-2.5,3.6-8.8,5.7-8.7,1.5,0,1.5.1,0,1.1-3.7,2.4,0,5.8,1.3,8.4,22.5,34.8,32.7,109.6,31,139.4,5.2,1,8.9-19.5,10.4-15.6-2.3,4.9,10-3.9,7.7-7.1,3.7-4.1,9.7-4.4,13.5-8.3,4.9-12.1-7.1-43-14.6-52-2.3,4.4-5.5-3.2-3.9-4.2,2.6-.1-2.4-3.9-.2-3.8,3.2-2.7-6.7-2.9-5.9-6.8-8.6-8.3,9.5-16.4,13.9-13.7,2.9,1.5,12.4,5.8,12.1.9,1.2-1.5-3.3-6.4-5.8-6.4-3.9-3.3,1.4-15.6.4-22-9.6-18.5,48.8,11.7,48.9,12,11.3,4.4,32.1,19.8,44.2,14.5,7.6-7.4,23.3,10.8,13.6,6.2-12.6.5,46.3,34.2,47.2,51.8,3.9,8.6,5.1,6.8,5.9,7-.4,1.9,3.6,6.3,5.7,6.3,3.9,0-1.6,2.9,4.2,1.8,4.4-1.6,5.2,3.3,8,4.2,1.7,0-6.1-7.1-4.4-7,17.3,8.7,22.8,30,26.8,49.1,6.4,18.9,10.1,54.9,19.7,74,5.1,2.9,1.8-5.1,7.2-2.1,1.4,3.5-4.3,4.4,4.2,6.1,1.6,4.3,77.6,8.1,39.9-1-.3-1-2.8-1.6-2,0,1.9,4.2-6.8-5.2-4.2-.7,1.3,2.8-2,.2-2.3,1.7-1.4,3-6.6-4.7-10-3.8-4.6-7.6-17.8-3.1-20.6-12.5-.8-3.8-2.4-1.9-2.4,3s-.5,3.2-1.1,3.2-.6.8.1,2.2c2,4-1.6-.6-1.5-1.9-5.5-3-12.8-27-3.9-29.4,4,0,1.3-1.3,1.4-3.2-.1-6,6,20.8,4.6,7.8-20.9-78.4.8-40.1,69.8-29.3,19.4,5.6,17.8,4.4,20.5,3.3,3.4,1.4,10.9,2.4,11,.7,0,18.2-26.4,52.3-22.1,65.4,9.7,1.1,14.4-16.6,20.6-24.5,11.9-17.9,22.7-42.4,38.8-54.1,14.4-10.2-15.2-41.2-28.8-56-4.5-.4.4-7.9-3.4-9.7-4.2-6.2,3.1-5.5,6.2-4.9,27-3.6,22.4-2.5,47.3-4.2,5.6.2,5.3-2.6,11.1-.4,2,1-1.6-4.2,1.2-1.8,8.3,3,29.4-2.4,37.9-1.2,6.6-5.4,47.7,3,32.8-10.5-11.1-15,5.6,8,10.3,5.6,11.8,1.3-6.1-10.8,4.7-3.2,3.9,5.1,3-.2,5.8,2.1,1.4,1.1,1.5,1,1-1-1.4-4.8,7.7,5.1,6.3-1.1-5.2-11.7,12.8,7.5,4.7-3.1-8-9-2.2,1.6-11.2-6.9-1,.6,6.2,6,5.1,6.6-.6,1.2-7.3-6.3-7.6-5.1,0,.5,1.1,2.1,2.5,3.4,2.8,2.7,3.5,5.2.7,2.7-2.3-2.1-3.3-2.1-2.5,0,.8,2.2-19.4-19.8-18.8-16.5-.6,2.2-11.5-11.3-6.6-3.1,1,1.3,21,22.8,13.5,16-3.5-3.1-3.5-2,0,2.7,4.7,6.3-10.6-8.7-4.1-5.1,1.2.5,1.5.3.8-.8-6.1-8.6-13.1-11.3-3.9-.9-17.5-16.4,2.6,6.1,5.4,9.2.6,1.6-23.5-24-18.3-15,.4.7-.9-.6-3-2.8-3.9-3-11.9-14.1-12-14.2-3.2.2-3.3,0,.3,4,6.2,10.3-7.4-1.9-9.5-3.1-.9,1,6.5,6.2,3.5,6.8-1.3.9-1.1,1.1,1.5,1.4,1.7-1.5,12.7,12.9,5.2,5.1-4.7-5.2-5.8-4.1-1.2,1.2,11.7,14-10.1-9.2-11-8.5-1.1.2,14.9,16.5,14.1,16.6-.3.7-10.5-10.9-11.2-9.6,1.7,5.3,12.6,14.5-.3,2.5-12.8-12-2.8.9-6.6-3-4.6-3-4-3.7-2.8-.1-.9,1.2-4.3-3.2-2.7-3.5,2.3-.7-4.2-4.9-2.1-2.2,3.7,5.7-7-5.2-2.9,1.7.9,1.1,1,1.5,0,1-7.2-4,14.8,18.5,4.1,9.2-2.2-2.1-2.3-2.1-2.4-.2.8,4.2-5.7-5.7-5.6-3.4,1.1,3-4.3,1.2-.3,4.3,4.5,3.7-2.2-7.8,4,.8,3.8,5.5-2.9-2.4-1.4,2.5.5,1.5.3,1.4-1.1-.2-2.3-3.4-2.3,1.1-4.5.1-1.7-1.1-1.3-2.6.6-1.9,3,1.2-5.1-8.7-8.9-10.8-6.3-3.5,9.5,11.6-1.8,1.3-17-16.1,2.1,4.6.5,4.5-6.9-6.4-2.1,1.2-4.9-.7-3.1-3.2-.9-2.2.5-2.7.8-.3-20-22.6-14.4-14.2,7.4,13.9-6.6-.3,2.8,11.1,4.1,4.4,7,9.5,1.4,3.1-8.6-9.4-12.3-12.2-13.1-10.3.7-1.9-10.3-14.8-6-7.8,3.1,3.5,3.9,5.5,1.2,3-9.3-7.6,3.4,5.1,2.6,5.8-3.4-2.3-7.5-6.4-11.1-6.1-2.1-1.7-.8.5,3,4.8,3.2,4.1.6,3.3-2.4-.6-15.9-15.8,13.1,16.6-5.4-1.6-6.1-6.1-9.5-8.6-4.9-3.5,14.3,17-5.1-4-11.3-8.6-.6.5,11.5,12.9,5.1,8.4-3.2-2.7,2.9,6.8,4.7,7.5,2.6,1.9,11,11.6,2,3.2-10.5-10.6-1.5,2.6-8.6-4.6-6.1-5.3,2,5.9-10.8-7.6-7.8-8.1-8.3-6.4-3-1.5,3,2.9,4.8,5.1,3.1,7.2,1.5,3-3.2-1.5-3.5-.4-.3,1.3,3.6,3.8,0,2.6-4-1.1,3.3,3.5,1.5,3.7-.6,0-2.1-.9-3.4-2-2.8-1.4,1.9-6-.5-7.4-3-2.2-4.7-.9-2.8,2,1.4,2.2,1.4,2.4,0,1.8-3.6.7-3.3-16.7-7.7-14.6.5,1.6,4,5.3.2,2.8-7.7-6.1,4.3,6.1,3.8,6.8,1.2,3.6-10-10.2-11.1-8.9.4,1.4,9.7,9.9,9.6,11.4-.2.6-19.2-18.2-10.4-7.2,4.8,4.9-5.1-1.5,1.2,5.2,1.5,1.7,1.3,1.8-.5,0-1.5-3.2-12.4-19.4-6.5-6.9-1.7-.7-11.4-9.6-3.3-5.8-6.3-7.3-2.4,5.6,2,8-.5,1-11.7-9.7-6.5-3.3,3.6,6-5.7-3.4-3.8-4.2,1-.5.2-.3-.4,0-10.2-6.7-1.1,2.9-7.5-2.1-1.8-1.6-2.5-2.1-1.6-.9,6.6,10.5-12.7-10.5-.1,4.4,2.8,3,4.8,4.7,4.4,3.8-2.2-4.5,5.2,1.8,2,1.3-1.5,6-26-23.8-14.6-9.5,12.5,13.4-.1,1.5-4.4-1.4-.5.5,1.4,2.8,7.8,9.7,5.9,6.3,1.8,3.2-4.9-3.8-8.9-8.9-9-8.8-8.3-2.7,5.5,5.2-1.6-6.9,5.9,3,7,8.3-5.9-4.2-2.3.9.7.7,1.2,1.7,1.2,2.2-.5.6-19.9-19.7-10-7.5,7.9,9.7-2.8-1.5-5.3-3,9.4,12.2,0,2.9,3.8,10.9-5.6-2.5.7-4.3-4.4-8.1-2.3-2.3-2.6-2.3-1.1,0,3.9,10.7-15.2-9.3-11-3.4,3.7,5.1-5.9-4.2-4.4-1.2,1.5,3.1-3.4-.9-2,2.1,1.2,5.3-3.9-2.7-4.6-1.7.9,1.8,4,6.2-.5,2-1.8-2.3-5.8-4.5-2.9-.6,0,2.6-10.1-7.2,1.6,6.3,9.5,10.5-9.4-8.4-8.7-6.7.9,1.8-2.5.9-2.8,2.4-.8,2-3.3-3.1-4.7-1.7-.8.5-1,.3-.5-.3.8-4-3.6-.2-1.2,2.5,2.5,3-.7,1.1-3.8-2.3-3.6-4-4.6-3.2-1.3,1,4.3,7.3-5-5.2-6.8-5.3,0,1.1,4.7,9-.9,2.6-4.3-6.5-10.3,2.1-4.3-.7.2-1.8,4.8,3.6,1.6,1.9-.9-.3-1.9,0-2.1.5-1.1,1.8-9-8.6-5.7-2.2,1,1.9.9,2-1.1,1.4-3.7-.7,4.7,4.7-2,4.4-8.5,2-5.6-4.5-6.9-3.9-1.8,2.9-1-2-1.5-3-13.1,8.7-79.2-130.4-84.8-126.2-12.8-16.7,52.1-8.7,79.2-14.8,47.2-3.4,105.7,2,121.7,1,9.6,0,11,.7,2,1.1-6.3.3-6.4,1.3-.2,2.4,9.2,1.8,27.9,1,32.3,0,6.2-.4.9-1.7-5.5-1.6,16.8-1.7,79.3,34.2,125.7,69.6,5.2,4.4,17.5,11.5,13.1,11.6-3.9-1.6-.2,5.3-.7,3.2-.4-4.2,2.5,3.1,3.6,2.1.6-.4.8-.2.5.3-2.2,3.5,10.1,11.6,17.7,11.7,8.4,0,9.9-1.4,4.1-4.3-10.5-5.4-25.3-16.4-23.5-17.5,9.2-6.6,32.8,7.9,36,13.9-8.9-24.4-33-5.1-56.1-26.6C422.2-4.8,362.6,7.2,244.6,9.5M345.5,12.4c1.5.2,3.8.2,5,0,3.2-.5-9-.5-5,0M304.2,23.7c-4.7,1,18.6,1,26.5,0,9.1-1.2-27-.8-26.5,0M267.2,24.9c-20.6,3.3-54.5-.9-71.5,7.8,21.7-2.1,154.4-11.3,71.3-7.7M101.4,34.3c1.8.6,3.4,3.4,1.9,3.4-12.4,19.6,32.9-3.9-1.9-3.4M139.2,35.2c-34.1,11.4-98.7,58.6-33.7,76.3.7-9.4,35.5-17,37.7-11-6.5-.6,2.3,4.2-4.3,3.2-1.9,4.1-.2,4.8-11.8,5.2-6.2.4-12.9,2.9-16.3,4.4,5,5.7-6.7,2.5-2.3-1.1,3.2-3.1-1.4-1-2.9,1.6-2,5.6-18.5-4.6-17.6,1.2-2.3,4.7-4.7,1.5,9,7.1,17.7,5.7,8.7,7.1,31.1,10,10.4,3.9,28.1-5.8,15.3-4.6-6.1,1-20.2-2.1-16.4-4.2,2.3.5,2.4.4.7-.9-3.3-3.6,1.8-10.1,4.9-5.7,14.7,9.2,23.7-20.4,28.5,14,2.8-6.6,42.8,12.8,49.8,14.7,24.6,15.4-2.8-22.9-3.4-29.1-20.6-33.4-30.1-94.3-68.4-81M465.7,50.3c13.8,9.1-4.2-6.3,0,0M489.2,66.6c14.4,10.6-3-4.3,0,.1M501.2,75.7c14.6,10.7-1-3.5-4.3-4-1.1,0,1.4,1.8,4.3,4M505.2,72.6c-1.4-.1,12.8,10.7,10.5,6.2-2.4-4.7-10.6-9.5-10.6-6.2M69.1,76.5c-4,2.2-27.3,17.3-17.1,16.8,2.9-3.1,35.2-29.8,17.1-16.8M48.3,76.5c-4.6,3.3,6.5-1.1,3.5,3.6-.4,1.8-.3,2.5.4,2.1,2.7-4.6,6-7.7-3.8-5.8M45.5,82.2c-1.5,2.7-4.5,14.4-4.1,15.8,2.2-1.1,8.6-19.2,4-15.8M509.2,81.4c0,1.2,8,6.5,8,5.4,0-1.6-9.2-7.4-8-5.3M215.2,85c0,1.3,9.2,18.8,9.7,18.3.3-2.4-10.5-21.1-9.7-18.3M527.2,95.1c.2.9,17.1,13.3,17.6,13.8,8.3,2-22.2-17.7-17.7-13.8M157.9,106.9c3.4,1.2,7.2,24.8,5.9,12,1.6-6.7-10.9-19.8-5.8-12M576,112.4c0,8.4,26.2,10.3,28.2,16.7,0,1.1,4.4,3.5,12.5,6.6,2,.7,2.2.4.5-.9-1.7-1.3-1.1-1.4,1.8-.2,11.2,7.8,50,20.9,31.2,45.5,13.1-34.9,25.3,27.5,37.9,51.8,5.1,20.8,13.9,95.2,5.5,105.5-6.9,3.9-9.7-20.8-11.7-26,2.1-2,3.1,1.5,4.5-7.8.6-6.4-8.5,2.2-10.5-1.1-5.1-4.7-4.6,7.5.9,18.1,2.3,1.1,3.5,28.9,6,28.7,3.2.4-4.5,2.4-1.7,2.7,28.2-3.6,12.6-44.7,14.4-73.4,1.8-81.8-49-142.6-119.8-165.8M236.2,123.8c-.2,2.9,5.4,5.8,1.5.3-1.2-1.6-1.5-1.7-1.5-.3M367,127.4c1.8.2,4.7.2,6.5,0,4.4-.5-10.8-.5-6.4,0M146.2,133.8c0,2.1,2.3,9.3,3.3,10.4,1-1.4,1.2-15.6-3.4-10.4M163.7,135.5c.4,2.5,4.4,19.4,4.9,8-.4-2.1,0-2.2,1.4-.2,3,8.9,10.1,7.1,15,8.6,2.5,2.4,2.5-.6-.2-1.3-2.6-.4-4.4-5.6-2.8-5.5,2.5-.1,0-2.9,6.4-1.9,2.9.2,4.5.2,3.5-.1-1-1.4-17.9-8.3-21.8-8.4-2.2,0-1,.6-1,1.2.6,12.4-5.4-7.9-5.5-.4M149.5,147.8c1.2,2,1.9,2.3,7.7,3.4,10.7,2.8-11.7-8-7.7-3.4M327.1,156c11.9,11.1-5.4-7.9,0,0M317.2,155.5c-1.2-.4,9.2,9.8,7.5,7.4-2.2-2.6-1.4-4.2,1.1-2.1,4,3.1-5.2-8.5-2.9-2.4.3,2.6-6.2-7-5.6-3M390.8,156c1.8.7,2.8,9.4,2.8,5.1-.5-2.4,4.4,1-.9-4.4-1.9-1.7-2.4-1.9-1.9-.7M380.2,156.1c7.1,10.3,8.3,4.7,0,0M137.2,157.6c6,3.4,19.8,8.2,26.3,8.9-3.4-1.7-23.9-10.7-26.1-8.9M315.2,157.8c-2,3.1-9.9-3.4-4.3,3.3,5.6,6.8-2.4-6.1,4.2,1,6.9,5.4.3-.7.9-2.4,7.5,5.9-.5-6.4-.9-1.9M436.7,160.5c.5,0,6,7,6.5,6.8.5-1.3-8.1-10.2-6.5-6.7M227,165c5.4,5.2,3.3,2.2,6,2.1,5.3,1.9,1.1-5.8,1.6-2.2.7,2.1-.9,2.4-1.6.4,0-1.3-10.2-3.7-5.9-.3M410.2,164.4c14.6,20,14.3,6.3,0-.1M440.3,168.4c1.9,2.3,3.6,4,3.9,3.7,1.2,0-9.3-10.3-3.9-3.7M18.2,168.6c2.3,10.4,8.5-5.3-.1,0M455.8,173.4c12.7,11.2-9.9-12.3-.1,0M6.7,181c-1,8.4,1.6,52.3,1.1,12,0-21-.2-25.7-1.2-12M16,174.1c-.7,3.4,1,10.2,4.5,17.6,6.9,15.5-4.7-23.2-4.5-17.6M421.2,172.3c0,1.2,4.8,6.3,5.3,5.7.8-.6-4.6-8.5-5.3-5.7M467.2,172.9c-.5,1,5.6,5.7,3.1,1.9-1.4-2.6-3.1-3.6-3.1-1.9M475.2,173.6c-7.8.8,2.1,5.8,3.5,6.9.5-.9-3.9-4.2-3.5-5.2.5-1.5,10.7,9.7,6,6.9-1.1-.7-1.4.8-.4,1.8,6,2.2-3.4-10,3.5-4.7,2,1.7,2,1.6-.2-1.4-1.9-2.6-2.5-3-2.8-1.7.4,3.5-5.7-4.5-6.1-2.6M430.4,176.5c.4.8,12.6,12.4,6.3,5.2-2.4-3.2-11.2-12.4-6.4-5.2M462.1,176.6c3.9,5.5,5.4.6-.2-2.1-1.8-1-1.8-.8.2,2.1M498.3,175.4c-1.7,1.6-.5,3.4.9,1.3,1.6-2.8.3,1.9,1.5.8.6-1.1-.7-4.7-2.4-2.1M520.7,177.7c9.4,10.5,4.8,1.7-1.5-2.5-1.3-1.1-.7,0,1.5,2.5M445.2,175.3c3.5,2,3.4,10.8,7.3,11.3,1.7,0,0-1.1-1.2-2.4-1-.7-3.1-12-6.1-9M488.8,176.3c-.6,2.3-3.8-.8-1.3,2.2,5.5,6.2-1.3-4.6,4.9.9,4.1,4.5-4.3-9.1-3.7-3.2M529.7,176.8c.1,3.9,8.5,12.9,11.1,13.6,1.4,0-7.6-9-5.4-8.4,1,.4,1.8.2,1.8-.4-1.3-1.3-7.1-.9-7-4.1,0-1.6.7-.4,1.5.3,5.4,3-.8-3.6-2.1-.9M509.2,177.4c0,1.5,4,5.6,4.7,4.9,1.2-.5-4.5-5.9-4.7-4.9M30.9,185.7c.4,8-4.6,15.7,1.7,20.9,6.6,11.8,0-29.8-1.7-20.9M415.5,179.9c1.4,2.1-3.2,1.8-1.7,3,6,2.6,1.6-7,1.7-3.1M467.2,179.3c0,1,8.1,8.6,8.6,8.1.5-.3-8-11.2-8.7-8.1M42,181.9c-.8,13.7,10.6,35.2,15.2,47.7,7.4-7.4-12.4-48.2-15.4-47.7M452.1,181.9c-1.8,3.6,5.9,2.5,8.1,5.9,6.7,5.8-2.7-4.1-2.9-5.4-1.1-2.5,12.3,11.2,9.3,6.9-4.8-7-10.6-9.9-14.4-7.3M440.2,181.8c-.5,0,7.7,9.3,8,8.3.6-.4-7.6-8.9-8-8.3M491.8,183.9c1.3,2.1-4.1-1.4-1.1,1.8,2.1,2.3,4.4,2.8,2.5.5-1.5-1.8,0-2,2-.2,1.9.9-5.9-6.4-3.5-2.1M558,185.8c2.7,3.5,10.6,11.3,5,3.2-3.7-5,1.4,0,2.2-1,0-1.9-3-3.9-3.9-2.5-.9,2.4-9.8-6.5-3.4.2M655.3,188.5c-3.8,9.4-19,25.5-12.5,35,.9,1.1,3.1,11.6,2.9,4.5-1.9-5,32-60.9,9.5-39.4M486.2,185.2c7.3,9.9,10,7.5,1,0-1.6-1.3-1.9-1.3-1,0M512.7,186c10.3,10.4-2.2-7.2-.1,0M469.2,185c0,.2,2.1,2.6,4.6,5.2,7.7,8.5-5.5-9.5-4.5-5.3M526.2,185.5c.7,6.1,7-1.6,4,0,.4,1.9-4-1.4-4,0M545.2,188.2c9.6,7.3-6.5-8.5-.1,0M571.2,187.5c1.7,3-.9,1.4-1,3.2,0,1.5,1.7,1.2,2.3-.4,1.1-.7-2.7-6.1-1.3-2.8M532.7,188.7c1.6,3.6-4-.9-1.2,2.7,2.2,1.6.1,4.2,2,3.7,1.8-1,4.5,4.7,6,4.6,1.5-.6-11.4-11.7-3.1-6.9,4.5,3.2-6.9-11.3-3.7-4.1M246.7,188.6c-4.4,1.1-25.6,6.7-10.3,6.8,4.7-3.3,9.8-2.6,4.6,0-3.2,1.7,1,.6-.3,3.6-1,3.9,11.6,26.1,14.7,26.1s1.2,1.2,1.4,2.6c-.5,5,7.6,14.8,4.2,6.9-2.5-2.5,2.6,1.9,3.4.4,1.5-.9-.7,1.7,2,1.7,5.8,1.1,0,4.6,1.4,1.8.4-.6.1-1-.4-1-1.4,0-1.4,1.7,0,2.5,1.5.5-.7,4.3.9,4.5,1.7,0-1.3-3.1,1.4-1.1,2.9,1.3-1.1,3.7.6,4.2,3-4.1,5.7,1.9,4.9-1.4-1.2-3,3.5,2.5,4,1.2-1.5-1.1-3.2-6.4,1.5-1.4,2.7,2.8-4.5-6.4-1.7-4.6,1.2,1,1.9-5.9,1.7-6.6-13.4-13.3-10.2-13.9-29.5-33.7-17.7-12.3-3.9-10,16.6-7.8,43.8,14.3,114.9,22.6,134.5,51.2,0,.5,9.4,14,10.7,15.2-5.5-13.3,6.4,5.4,6.3,7.8-.6,6.3-7.8-12.8-4.9-3,3.2,7-9.8,15.9-9,7.4-.9-30.2-50.8-30.8-81.1-43.1-9.3-1.4-62-22.7-48-6.1,8.2,37.3,64.3,48.9,118,62,90.4,16.7,14.3-68-53.1-74.5-24.3-4.3-76.1-24.7-94.5-21.6M498.2,190.7c9.4,9.5-4.4-9.8.1,0M502.2,188.3c5.2,8.2,16.9,14.9,0,.1M560.2,191.6c6,9.2,17.6,17.7,5.1,3.6.1-1.4,6.8,6.5,6,3,0-1.4.4-1.5,1.2-1,2,1.2-1.9-2.8-.5-2.6-1.7-3.8-6.9,1.9-10-2.8-1.9-1.7-2.5-1.8-1.6-.2M515.2,198.3c4.1,4.5,7.9,8.2,8.3,8.2,5.1,3.1-21.4-22.5-8.3-8.3M554.2,191.2c0,.6,2.5,3.5,5.5,6.5,14.5,14-4-6.9-5.5-6.5M586.4,191.8c2.2,1.1,2.4,6.7,5.2,3.4.4-2.1-4.7.9-1.1-3.5,1.1-1.2,1-1.2-.4-.2-1.3,2-6-2.8-3.5.3M473.9,198.2c2.8,3.3,6.1,6.9,7.4,8,7.4,6.8-20-22.8-7.4-7.9M473.2,193.3c-.7.4,9.7,10.8,10,10.2.7,0-9.7-11.3-10-10.2M481.2,193.4c-.2.8,5.7,5.9,4.6,7.1-2.8-.8-8.7-7.3-2,.4,5.1,5.8.9-3.6,5.3,1.7,6,5.7-7.8-10.7-7.8-9.2M518.2,197c2.5,2.6,4.6,4.8,4.8,4.8,3.6,1.9-12.6-12.6-4.8-4.7M576.6,195.1c-.8,3.6,6.6,6.7,2.1,2.6-3-4.7,1.8.9,3.3-1.7,1.2-1.3,1.1-1.4-.8-.8-2.5,1.5-3.7-4.9-4.7-.2M173.3,196.2c-5.2,2.3-12.1,2.8-16.3,4.7-.2,2-5.7-5.1-5.8-3.3.3,2.1-4.6-.9-3.4,1.5.4,3.4-9.5,4.7-8.1,7.3.9,1.7-3.4.3-3.4,4,0,1.8.6,1.3,1.3,1,3.1.2,0,4.8-.3,6.2-2.1.4,3.3,5.8,1.9,6.1-.9.3.2,13.2,2,11.3,0-4.1,11.6,2,12.5,6.5.7,3.4.9,2.7,3-7.4,18.6-117.6,127.4,72.1,93.5,167.8-6.6,3.2-5.9,3.7,1,.7,5.9-2.5,6-2.8,7.1-15.8-2-27.9,17.3,11.6,21.8-.9-4.8-5.9,23.5.4,16.7-2.8-36.2,4.8-23.3-47.3-35.5-67.2-11.4-44.1-55.5-136.3-87.9-119.6M490.8,200.6c14.3,12.2-11.1-12.8,0,0M472,200.2c1,2.1,7.2,8.3,7.2,7.3.8-.6-7.7-8.8-7.2-7.2M584.3,202.4c4.3,4.6,6.3,6.3,6.9,5.7.8-1-15.6-16-6.9-5.7M507.2,201.4c-.4.4,4.6,5.8,5,5,.4,0-4.7-6.4-5-5M589.2,202.6c1.8,7,17.3,7.5,3.7.1-1.6,0-.3.7.7,1.5,4.7,5.9-4.1-1.9-4.4-1.6M12.7,214.4c-2.4,26.5,13.7-.6,5.9,1-2.8.3-2.8.2-1-1.2,7.1-6.1,8.7,5.1,9.5,2.9,1.4-3.5.4,2.4,2.9,2,2.3.1,8.9,15,5.6,4.8-3.7-7.4-13.8-13.8-15.7-17.1-2,.4.3-3.8-1.8-1.4-4.2,2.2-6.5-12.3-5.5,8.9M597.2,203.2c5.8,8.5,6.5,1.6,0-.1M8.5,224.2c0,3.3.2,4.5.4,2.7.5-2.6-.3-11.4-.4-2.7M19.3,223.6c-13,5.9,8.1,69,2.5,36-8.5-16.5-6-36.1,4.5-35.6,9.2-.3-4.8-4.6-7-.5M681.6,229.3c3.5,4.3-10.5,23.9-12.7,28.4,6.9-4.5,17.8-24.9,12.8-28.5M121.3,231c-1.3,3.5,1.1,12.2,3.8,13.2,8.2,2,1-23.6-3.8-13.2M178.8,231.8c-2.3,1.3-11.2,17-5.6,9.1,7.1-10.7,2,12.9,4.8,12.1,2.1.2,1.2-8.1,4.1-11.3,7.5-17.5-2.8,2.2-3.8,3.7-.5-3,6.8-20.4.4-13.8M9.5,236.2c0,3.3.2,4.5.4,2.7.5-2.6-.3-11.4-.4-2.7M646.2,235.1c0,1.9.3,3.7.8,3.9,1.5-.4-1-13-.8-3.9M202,234.4c11.3,9.1,20.1,29.8,27.1,42.5,6.8,2.6-22.8-53.4-27.1-42.4M281.2,240.2c1.7,2,1,4.7,2.3,3.9,3.1-.3-2.4-8.7-2.2-3.9M25.8,241.3c-6.3,3.1,4.9,27,6.4,15.4,0-7.4.5-3,1-3,3.9-5.4-5.6,3.3-6.4-3.8,0-2.6,6.1-14.2-1-8.7M199.5,246c2,12,8.9,3.2,1.1-2.4-1.6-1.3-1.7-1.1-1.1,2.4M568.3,250c2.9,4.3-5.3-3.3-1.9,1.5,3.5,4,2.8,4.5-1.2.8-6.1-7-1.9,3-7.3.6-1.5-1.5-3.1-1.2-1.2.9,4.8,7.1-9.1-7.8-4.5-.6,1.7,2.1,0,1.9-2.4-.2-2.5-2.2,4.5,6.4,3.4,6.8,2.9,11.3-5.3-6-7.9-1-1.2.8-1.2,1.1.2,2.5,2.7,2.8,1.4-2.5,4.8,1.4,3.7,3.2-.7,2,.8,4.9,2.4,2.8-8.2,1.5-4.2,3.9,3.8,4.3-2.6-1.7-3.6.4-5.2,5.9,15.1.1,8.1,4.8,5.5-5.5,11.4,2.3,4.3,2.2-27,2.1,34.9,7.3,28.2-1.7-3.5-3.4,1.4,3.9-2.2.6-2.6-2.9-4.2,4.3-4.2-2.7-.4-8.2-5.4,6.9-6.8-2.5.7-1.1-.8-1-2.5.1.1,1.1-6.6,8.8-6.8,4.6,1.6-4.4,5.8-2.3,5.5-8.5,2.2,6.3,4.9-4,4.7,2.6-.5,2.8,0,3.1,1.9,1.1,3.3-1.7-6.2-6.4-3.5-8.2,2.6-2.2-1.3-10.3,1.7-10.3,7.2,4.9-8.1-11.9-3.6-3.9M575.2,248.4c-.7,1.4-5.5.1-1.5,2.9,1.9.5.9,3.4,3,3.4,2-1.6,4.1-1.6,4,1.8-.9,2.3,1.3,4.4,2.9,2.9,1.6-.7-.4-4.5,1.4-3.2,1,.6,1.1.2.5-1.6-2.3-5.3,3.9,2.6,2.1-.9-3.4-6.9-2.8-.3-6.1-3.4-6.6-4.2,2.6,4.2,2.3,5-.2,1.2-8.5-8.5-8.7-6.9M214.3,254.7c12.4,22-7.8-19.7,0,0M590.8,250.2c1.9,4.3-3.1-2.7-2.6.8,0,2,2.2,3.4,2.8,1.8,0-2.2,5,2.4,5.2.8-.2-.3-7.5-6.7-5.5-3.4M188.2,253.8c0,2,3.9,9.4,4.5,8.7.6-.3-4.4-16.9-4.5-8.7M85.2,255c0,1.5,2.9,5.7,3,4.2.4-1.2-2.2-8.5-3-4.1M197.8,255.4c-6.7,12.1,7.5,20.5,18,33.3,7,12.4,6.4-.8,0-5.6-11.8-8.8-14.2-28.9-18.1-27.8M572.9,255.5c-3,.5,4.8,9.9.4,10.3-3.2-.2,1.2,1.7,1.5,3.5,3.9,5.9,1.5-2.1,7.8.5,6.5,1.5,3.7-1.9,2.7-4.9,0-.9.4-.7,1,.7,4.1,8.1,3.3-8.6-4.3-4.2-3.9.5-3.6-3.7-7.5-3.7,1.7-.3,4.1-2.4-1.8-1.9M203.2,256.2c6.1,19,10.3,12-.1,0M555,257.2c1.3,2.5,6.2,7.2,6.2,5.9,1.4.2-6.9-9-6.2-5.9M12.4,259.7c0,1.4.3,3.6.8,5,2.1,6.7-.7-10.9-.8-5M563.3,258.5c0,.9,5.9,5.6,5.9,4.8,0-.5-6.4-7.6-5.9-4.7M588.7,260.5c0,2.6,1.6,5.2,3.1,5.2,2.7.5-5.1-4.8-.8-3,8.1,5.2-3.3-8.6-2.3-2.1M166.3,264.1c-2.5,5.3,2.9,5.8,1.6-.6-.3-1.5-.8-1.3-1.6.6M684,265.7c.1,4-2.1,4.9-2.5,8.6.6.9,8.1-13.6,4.7-10.1-1.8-.4-2.4-3.4-2.2,1.5M78,267.6c-15.8,14.5.6,10.7,10.5,18.3,12.3,12.4,44.3,7.1,28.4,1.4-9-5.3-29-33.3-38.9-19.8M16.2,275c-.2,8.4,13.6,19.8,23.7,19.6,3.9,0,3.6-.3-.8-.8-11.3.5-17.8-10.2-22.9-18.7M175,279.1c-2.6,2,.4,22.6,3.3,22.6,3.9-1.4.6,14.6,5,9.6-5.4-7.8-.4-39-8.3-32.2M594.8,279.6c-4.8,2.8,8.3.9,9.9,1.1,6.7-1.3-7.8-2.8-9.9-1.1M71.2,282.6c-.4,1.4,2,4.3,1.4,1.7-1-2.7.2-1.9,22,13.3,23.7,16.5,23.6,16.5,23.6,15.8-.4.5-48.7-38-47-30.7M182.7,284c-1.8,5.2-.2,32.4,3.8,10.5,2-4,2.1-6.1,0-3.5-6.9,7,3.9-15.5-3.9-7.1M168.2,285c-8.3-2.1,1.5,27,0,27.7,9.6,13.5,2.8-38.5,0-27.8M189.3,295.5c-1.7,3.5-.8,5.2-3.1,9.4-6.3,10.4,9.9,5.1,6.5-2.2-1.6-4,0-11.2-3.3-7.2M201.8,294.8c-4.5,18.4,7.3,11.5,0,0M211.9,294.4c-2.8,4.5,2,13.5,4.5,11.5,1,.6-3.1-14.8-4.7-11.5M117.2,306.2c-.5.2,7.5,4.9,4.5,1.6-1.7-1.9-4.6-2.9-4.6-1.7M222.3,308.5c-.9,3.6-16.4,5.8-11.5,8.6-.2,5.9,19.2-7.6,15.3-8.4-2.4,0-.8-.5-.4-1,.5-2-2.9-.7-3.4.8M119.5,314.4c-1.3-.3,15.6,11.6,14.7,10.1-2.3-2.2-15.4-11.3-14.7-10.1M393,321.5c-12,26.7-21.3,31.9-33.9,31.3,19.6,15.9,48.5-60.8,33.8-31.2M165.3,317.7c2.4,16.5,1.9-6.9,0,0M197,317.7c-20.1,12,5.9,13.5,7.5,6.7-1.9-3.1-1.1-6.7,1.5-6.7,5.9-.9-5.8-3.2-9.1,0M149.2,322.7c4.1.5,10.9,5.3,9.8,3.5.8-3.1-20.4-8.2-9.8-3.7M136.2,326.1c-.5.2,8.9,6.9,9,6.2.5-.2-8.9-6.9-9-6.2M190.7,332.7c-1.8.7-1.6.9,1,1.2,3,.4,2.9.4-2,2.8-8.4,4.1-18.7,13-15.1,13,5.2-1.7,41.5-23.3,16.1-17M221.2,333.5c.7,5-9.4,30.8-8.1,37.6,8.3,4.9,9.5-44.2,8.1-37.6M146.2,333.1c-.5.2,8.9,6.9,9,6.2.5-.2-8.9-6.9-9-6.2M181.4,333.6c-3.3,6.3,5.3,3.4,5.3,0-2.9-3.1-.9,1.8-2.3,2.1-1.5.1-1.2-3.4-3-2.2M233,337.2c-1.3,8.9-8.5,38.7-10.5,34.8-.6-1.8-3.3-.4-3.3,1.8,10.4,11.6,17.9-37.8,13.9-36.7M211.7,342.2c-2.5,5.5-3.2,17.7-1.1,19.4,1.3,1.1,1.7.6,3-3.5,3.5-12.1,4.6-23,1.8-18.4-1.6,2.1-1.4-2.7-3.6,2.6M158.7,342.1c2,.9,6,7.6,6.6,5.3,1.6-.7-11.7-9.8-6.6-5.3M197.9,345.6c-5.7,6.4.9,5.1,3.5,8.6,11.8,8.4,4.1-19-3.5-8.6M188.3,348.1c-2.3,2.5-2.3,2.6-.6,5.2,3.6,7.6,5.3-9.9.6-5.2M319.7,346.6c12.2,4,5.3-2.5,0,.1M165.4,350.2c-.2-.2,2.1,8,2.7,6.5.3-.5-2-7-2.7-6.5M183.7,356c.8,3.7,1.2,4.4,2.1,3.5,1.8-2.4-3.8-11.5-2.1-3.5M224.5,360.4c-2.5,10-1.1,8.8,1.3,1.8,2-3.9,1.6-15.1-1.3-1.8M169.8,363.7c4.5,16.6,27.5,43,37.5,43s-1.1-1.2-4.1-2.8c-12.3-4.4-26.9-27.2-33.5-40.2M317.2,386.7c14.1,1.9,20.7,2.4,19.8,1.4,3.4-.7-47.9-5.3-19.8-1.4M286.2,391.8c4.4.8,66.8,1.3,65.9.6,4.7-.3-70.8-1.7-65.9-.6M356.7,393.8c5.1,1,9.2,1,5,0-1.5-.6-12.5-1.5-5,0M384.5,396.4c4.3.5,21.1-.3,5.2-.4-6.1,0-8.4.2-5.2.4M231.2,406.2c-11.8,2-13.6,3.2.4,1.1,14.5-2.3,11-3.4-.4-1.1M212,407.4c1.6.5,8.6-.3,2.3-.4-2.4,0-3.5.2-2.2.4"/>
  <path class="cls-2" d="M191,33.9c48-6,184.8-12.9,235-11.3,34.1,25.2,88,57.1,118.7,86.3-86.6,13.7-216.5,12.9-304,19.6,0,0-50.1-94.8-49.7-94.6Z"/>
</svg>